<svg xmlns="http://www.w3.org/2000/svg" xmlns:xlink="http://www.w3.org/1999/xlink" fill="none" version="1.1" width="94.677734375" height="34.00006103515625" viewBox="0 0 94.677734375 34.00006103515625"><g><g><g><g><path d="M33.20205855301675,16.839770271766746L33.199858553016746,16.677470271766744L33.195958553016744,16.515470271766745L33.19055855301674,16.353470271766746L33.183558553016745,16.191370271766743L33.174958553016744,16.029570271766744L33.164758553016746,15.867770271766744L33.152958553016745,15.706170271766744L33.139658553016744,15.544770271766744L33.124658553016744,15.383370271766745L33.10805855301675,15.222170271766744L33.08985855301675,15.061270271766745L33.07005855301674,14.900470271766745L33.04855855301675,14.739870271766744L33.025558553016744,14.579570271766745L33.000758553016745,14.419570271766744L32.97455855301674,14.259670271766744L32.94655855301674,14.100170271766745L32.917058553016744,13.940970271766744L32.885858553016746,13.782070271766745L32.853058553016744,13.623470271766745L32.818658553016746,13.465270271766745L32.782658553016745,13.307370271766745L32.744958553016744,13.149870271766744L32.70575855301674,12.992770271766744L32.664958553016746,12.836070271766745L32.622358553016745,12.679770271766744L32.57835855301674,12.523870271766745L32.53275855301675,12.368470271766745L32.485558553016745,12.213570271766745L32.436758553016745,12.059070271766744L32.386458553016745,11.905070271766744L32.33455855301675,11.751570271766745L32.281158553016745,11.598670271766744L32.226158553016745,11.446170271766745L32.16975855301675,11.294270271766745L32.11175855301674,11.142970271766744L32.05225855301674,10.992170271766744L31.991258553016745,10.841870271766744L31.929958553016746,10.694730271766744L31.866058553016746,10.545710271766744L31.800758553016745,10.397340271766744L31.733958553016745,10.249620271766744L31.665758553016744,10.102590271766745L31.596158553016746,9.956250271766745L31.525158553016745,9.810620271766744L31.452658553016743,9.665710271766745L31.378658553016745,9.521560271766745L31.303358553016743,9.378160271766745L31.226558553016744,9.235530271766745L31.148158553016746,9.093690271766745L31.068558553016743,8.952660271766744L30.987458553016744,8.812440271766745L30.904958553016744,8.673060271766744L30.821158553016744,8.534530271766744L30.735758553016744,8.396860271766744L30.649058553016744,8.260070271766745L30.561058553016746,8.124170271766744L30.471558553016745,7.989160271766744L30.380758553016744,7.855080271766744L30.288558553016745,7.721930271766745L30.194958553016743,7.589710271766744L30.100058553016744,7.458450271766744L30.003858553016745,7.328150271766744L29.906258553016745,7.198830271766744L29.807458553016744,7.070490271766745L29.707358553016746,6.943140271766745L29.605958553016745,6.816800271766745L29.503258553016746,6.6914802717667445L29.399258553016743,6.567180271766745L29.294158553016743,6.443900271766744L29.187758553016746,6.321670271766744L29.079958553016745,6.200480271766745L28.971158553016746,6.080350271766744L28.861158553016743,5.961270271766745L28.750058553016746,5.8432502717667445L28.637658553016745,5.726310271766745L28.523658553016745,5.6098602717667445L28.458658553016743,5.544510271766745L28.343458553016745,5.430370271766744L28.227058553016743,5.317360271766745L28.109758553016743,5.205490271766744L27.991358553016745,5.094780271766744L27.871858553016743,4.9852602717667445L27.751258553016743,4.876920271766744L27.629658553016746,4.7697702717667445L27.507058553016744,4.663860271766744L27.383358553016745,4.559180271766745L27.258658553016744,4.455740271766745L27.132958553016746,4.353560271766744L27.006158553016746,4.252660271766745L26.878458553016745,4.153050271766745L26.749758553016743,4.054740271766745L26.619958553016744,3.9577302717667444L26.489358553016743,3.8620502717667446L26.357758553016744,3.7677002717667447L26.225058553016744,3.6747002717667447L26.091658553016746,3.5830502717667447L25.957158553016743,3.4927702717667444L25.821758553016746,3.4038602717667445L25.685458553016744,3.3163302717667444L25.548358553016744,3.2301902717667446L25.410358553016746,3.1454502717667445L25.271458553016746,3.0621102717667448L25.131758553016745,2.9801802717667445L24.991158553016746,2.8996602717667446L24.849858553016745,2.8205702717667447L24.707658553016746,2.7429102717667444L24.564658553016745,2.6666602717667445L24.421058553016746,2.5918602717667447L24.276458553016745,2.5185002717667446L24.131358553016746,2.4465602717667445L23.985358553016745,2.3760702717667446L23.838758553016746,2.3070102717667442L23.691358553016745,2.2394002717667445L23.543358553016745,2.1732302717667444L23.393958553016745,2.1081802717667446L23.309358553016743,2.0720502717667446L23.159658553016744,2.0096102717667446L23.009458553016746,1.9486402717667446L22.858658553016745,1.8891602717667446L22.707458553016746,1.8311702717667446L22.555558553016745,1.7746922717667446L22.403158553016745,1.7197402717667445L22.250158553016746,1.6663042717667444L22.096658553016745,1.6144232717667446L21.942658553016745,1.5640792717667447L21.788158553016746,1.5153082717667445L21.633258553016745,1.4680922717667446L21.477858553016745,1.4224602717667445L21.322058553016745,1.3784092717667447L21.165758553016744,1.3359532717667446L21.009058553016743,1.2950782717667446L20.851958553016743,1.2558132717667445L20.694458553016744,1.2181592717667447L20.536558553016743,1.1821162717667446L20.378358553016746,1.1476852717667445L20.219758553016746,1.1148662717667446L20.060858553016743,1.0836762717667445L19.901658553016745,1.0541052717667445L19.742058553016744,1.0261552717667446L19.582358553016746,0.9998352717667446L19.422258553016743,0.9751362717667446L19.261958553016743,0.9520572717667446L19.101358553016745,0.9306092717667446L18.940658553016746,0.9107702717667445L18.779658553016745,0.8925524717667446L18.618458553016744,0.8759541717667445L18.457158553016743,0.8609574717667445L18.295558553016743,0.8475724717667446L18.133958553016743,0.8357889717667446L17.972158553016744,0.8255971717667445L17.810258553016745,0.8169894717667445L17.648358553016745,0.8099733717667446L17.486258553016743,0.8045314017667445L17.324158553016744,0.8006535617667445L17.161958553016746,0.7983398437667446L17.002358553016744,0.7975702717667446L16.840158553016746,0.7983273507667445L16.677958553016744,0.8006310717667445L16.515958553016745,0.8044889217667446L16.353858553016742,0.8099208717667445L16.191858553016743,0.8169269717667446L16.029958553016744,0.8255147717667446L15.868258553016744,0.8356865717667445L15.706658553016744,0.8474600717667445L15.545158553016744,0.8608350717667446L15.383858553016745,0.8758117717667445L15.222658553016744,0.8924000717667445L15.061658553016745,0.9105972717667445L14.900858553016745,0.9304162717667446L14.740358553016744,0.9518572717667446L14.580058553016745,0.9749162717667446L14.419958553016745,0.9995982717667445L14.260158553016744,1.0259082717667445L14.100658553016745,1.0538402717667446L13.941458553016744,1.0833912717667444L13.782558553016745,1.1145742717667446L13.623958553016745,1.1473752717667445L13.465658553016745,1.1817892717667444L13.307858553016745,1.2178212717667445L13.150358553016744,1.2554652717667445L12.993258553016744,1.2947212717667447L12.836458553016744,1.3355682717667445L12.680258553016744,1.3780252717667447L12.524358553016745,1.4220682717667446L12.368958553016745,1.4676922717667447L12.213958553016745,1.5148892717667446L12.059558553016744,1.5636592717667446L11.905558553016744,1.6139862717667446L11.752058553016745,1.6658672717667447L11.599058553016745,1.7192852717667444L11.446658553016745,1.7742372717667445L11.294758553016745,1.8307102717667445L11.143358553016744,1.8886902717667446L10.992658553016744,1.9481602717667446L10.842358553016744,2.0091502717667447L10.695208553016744,2.070530271766745L10.546178553016745,2.1344102717667446L10.397808553016745,2.1997102717667447L10.250098553016745,2.2664502717667445L10.103058553016744,2.334630271766745L9.956718553016744,2.4042602717667445L9.811088553016745,2.4753302717667447L9.666188553016745,2.5478302717667445L9.522028553016744,2.621770271766745L9.378618553016745,2.6971402717667443L9.235998553016744,2.773960271766745L9.094158553016744,2.8521902717667444L8.953118553016745,2.9318402717667444L8.812898553016744,3.0129302717667445L8.673528553016745,3.0954202717667445L8.534988553016746,3.1793302717667444L8.397318553016746,3.2646302717667446L8.260528553016744,3.3513202717667445L8.124628553016745,3.4394002717667447L7.989628553016744,3.5288702717667446L7.855548553016744,3.6197002717667446L7.722378553016744,3.7118902717667446L7.590178553016744,3.8054402717667446L7.4589085530167445,3.9003302717667445L7.328618553016745,3.9965502717667447L7.1992885530167445,4.094080271766744L7.070948553016745,4.192930271766745L6.943608553016745,4.293060271766745L6.817268553016745,4.3944902717667444L6.691938553016745,4.497180271766744L6.567638553016745,4.601120271766744L6.444368553016744,4.706320271766744L6.322138553016744,4.812740271766745L6.200948553016745,4.920370271766744L6.080808553016745,5.029210271766744L5.961728553016744,5.139230271766745L5.843718553016744,5.250410271766745L5.726778553016745,5.362760271766745L5.610328553016744,5.476810271766745L5.544978553016745,5.541790271766745L5.4308485530167445,5.657000271766744L5.3178385530167445,5.7732902717667445L5.205978553016744,5.8906402717667445L5.095258553016745,6.009070271766745L4.985728553016744,6.1285602717667444L4.877388553016744,6.249110271766744L4.7702585530167445,6.370710271766745L4.664338553016744,6.493350271766745L4.5596485530167445,6.617020271766744L4.456218553016745,6.741730271766745L4.3540385530167445,6.867450271766745L4.253148553016745,6.994180271766744L4.153528553016745,7.1219202717667445L4.055218553016744,7.2506502717667445L3.9582185530167444,7.380360271766745L3.8625285530167446,7.511040271766745L3.7681885530167447,7.642680271766745L3.6751785530167447,7.775270271766744L3.5835385530167447,7.9088002717667445L3.4932585530167444,8.043260271766744L3.4043385530167445,8.178620271766745L3.3168085530167444,8.314880271766745L3.2306785530167446,8.452040271766744L3.1459285530167445,8.590050271766746L3.0625985530167448,8.728940271766746L2.9806685530167445,8.868660271766744L2.9001485530167446,9.009210271766744L2.8210485530167446,9.150580271766744L2.743388553016745,9.292750271766744L2.6671585530167445,9.435700271766745L2.5923385530167447,9.579420271766745L2.5189785530167446,9.723890271766745L2.4470385530167444,9.869100271766744L2.3765485530167445,10.015030271766745L2.3074985530167442,10.161670271766745L2.2398885530167445,10.309000271766745L2.1737185530167444,10.456990271766745L2.1086585530167445,10.606410271766745L2.0725385530167446,10.691130271766745L2.0100985530167446,10.840770271766745L1.9491285530167446,10.990970271766745L1.8896485530167446,11.141670271766744L1.8316585530167446,11.293070271766744L1.7751855530167444,11.444870271766744L1.7202235530167447,11.597370271766744L1.6667975530167447,11.750270271766745L1.6149065530167446,11.903770271766744L1.5645725530167445,12.057670271766744L1.5157915530167445,12.212170271766745L1.4685855530167444,12.367070271766744L1.4229535530167445,12.522470271766744L1.3789025530167445,12.678370271766745L1.3364345530167445,12.834670271766745L1.2955665530167446,12.991370271766744L1.2563015530167445,13.148470271766744L1.2186475530167447,13.305970271766745L1.1825945530167445,13.463770271766744L1.1481635530167447,13.622070271766745L1.1153545530167446,13.780570271766745L1.0841645530167445,13.939570271766744L1.0545935530167445,14.098770271766744L1.0266435530167446,14.258270271766744L1.0003235530167445,14.418070271766744L0.9756245530167446,14.578170271766744L0.9525455530167446,14.738470271766744L0.9310975530167446,14.899070271766744L0.9112585530167445,15.059770271766745L0.8930407530167446,15.220770271766744L0.8764424530167445,15.381970271766745L0.8614457530167445,15.543270271766744L0.8480607530167446,15.704870271766744L0.8362772530167446,15.866470271766744L0.8260854530167445,16.028270271766743L0.8174777530167445,16.190170271766746L0.8104616530167446,16.352070271766745L0.8050196830167445,16.514170271766744L0.8011418430167445,16.676270271766747L0.7988281250167446,16.838470271766745L0.7980585530167446,16.998070271766746L0.7988156320167445,17.160270271766745L0.8011118530167446,17.322470271766743L0.8049797030167446,17.484470271766746L0.8104116530167446,17.646570271766745L0.8174177530167446,17.808570271766744L0.8260055530167445,17.970470271766743L0.8361773530167446,18.132170271766743L0.8479508530167446,18.293770271766746L0.8613158530167445,18.455270271766743L0.8762925530167446,18.616670271766743L0.8928808530167446,18.777770271766745L0.9110905530167446,18.938770271766746L0.9309095530167446,19.099470271766744L0.9523405530167446,19.260070271766743L0.9753995530167445,19.420370271766746L1.0000915530167445,19.580470271766746L1.0263915530167447,19.740170271766743L1.0543235530167445,19.899770271766744L1.0838845530167447,20.058970271766743L1.1150545530167446,20.217870271766746L1.1478565530167446,20.376470271766745L1.1822775530167444,20.534670271766746L1.2182995530167444,20.692570271766744L1.2559435530167447,20.850070271766743L1.2951995530167446,21.007270271766746L1.3360465530167445,21.163970271766743L1.3785035530167447,21.320270271766745L1.4225335530167444,21.476070271766744L1.4681585530167447,21.631470271766744L1.5153645530167446,21.786370271766746L1.5641245530167445,21.940870271766745L1.6144515530167447,22.094870271766744L1.6663335530167447,22.248370271766746L1.7197505530167445,22.401370271766744L1.7747025530167444,22.553770271766744L1.8311785530167446,22.705670271766746L1.8891485530167444,22.856970271766745L1.9486385530167445,23.007770271766745L2.0096185530167445,23.158070271766743L2.0710085530167444,23.305170271766745L2.1348885530167445,23.454170271766746L2.2001885530167447,23.602670271766744L2.2669285530167445,23.750370271766744L2.3351085530167444,23.897370271766743L2.4047385530167444,24.043770271766746L2.4758085530167446,24.189370271766744L2.548308553016745,24.334270271766744L2.6222485530167443,24.478470271766746L2.6976285530167443,24.621870271766745L2.7744385530167444,24.764370271766744L2.8526685530167444,24.906270271766743L2.9323385530167445,25.047370271766745L3.0134085530167445,25.187570271766745L3.0958985530167444,25.326970271766744L3.1798085530167444,25.465470271766744L3.2651085530167445,25.603070271766743L3.3518085530167445,25.739870271766744L3.4398985530167447,25.875870271766743L3.5293585530167446,26.010770271766745L3.6201985530167446,26.144970271766745L3.7123885530167446,26.278070271766744L3.8059285530167446,26.410270271766745L3.9008285530167446,26.541470271766745L3.9970385530167447,26.671770271766743L4.094578553016745,26.801170271766743L4.193428553016744,26.929470271766746L4.293558553016744,27.056870271766744L4.3949785530167444,27.183170271766745L4.497678553016744,27.308570271766744L4.601618553016745,27.432770271766746L4.706818553016745,27.556070271766746L4.8132385530167445,27.678270271766745L4.920868553016745,27.799470271766744L5.029708553016745,27.919570271766744L5.139728553016744,28.038770271766744L5.250908553016744,28.156770271766746L5.363248553016745,28.273670271766743L5.477318553016745,28.390070271766746L5.542268553016744,28.455470271766746L5.657488553016744,28.569670271766743L5.7737785530167445,28.682570271766746L5.891138553016744,28.794470271766745L6.009568553016744,28.905170271766746L6.129058553016745,29.014670271766743L6.249608553016745,29.122970271766743L6.371208553016745,29.230170271766745L6.493848553016744,29.336070271766744L6.617518553016745,29.440770271766745L6.742228553016744,29.544170271766745L6.867948553016745,29.646370271766745L6.994688553016744,29.747270271766745L7.122418553016745,29.846970271766743L7.251158553016745,29.945170271766745L7.380868553016745,30.042170271766743L7.511548553016745,30.137970271766743L7.643188553016745,30.232270271766744L7.775778553016744,30.325270271766744L7.909308553016745,30.416870271766744L8.043758553016744,30.507170271766743L8.179128553016746,30.596070271766745L8.315388553016746,30.683670271766744L8.452538553016744,30.769770271766745L8.590558553016745,30.854470271766743L8.729438553016745,30.937870271766744L8.869158553016744,31.019770271766745L9.009718553016745,31.100270271766746L9.151078553016745,31.179370271766743L9.293248553016744,31.257070271766743L9.436188553016745,31.333270271766743L9.579908553016745,31.408170271766746L9.724388553016745,31.481470271766746L9.869598553016745,31.553370271766745L10.015528553016745,31.623970271766744L10.162158553016745,31.692970271766743L10.309488553016745,31.760570271766746L10.457488553016745,31.826670271766744L10.606898553016745,31.891770271766745L10.691638553016745,31.927970271766746L10.841258553016745,31.990370271766743L10.991458553016745,32.05127027176674L11.142158553016744,32.11077027176674L11.293558553016744,32.168770271766746L11.445358553016744,32.225270271766746L11.597858553016744,32.280270271766746L11.750758553016745,32.33367027176675L11.904258553016744,32.38547027176675L12.058158553016744,32.435870271766746L12.212658553016745,32.484670271766745L12.367558553016744,32.53187027176675L12.522958553016744,32.577570271766746L12.678858553016745,32.62157027176674L12.835158553016745,32.66407027176675L12.991858553016744,32.704870271766744L13.148958553016744,32.74417027176675L13.306458553016745,32.781770271766746L13.464358553016744,32.81787027176674L13.622558553016745,32.852370271766745L13.781158553016745,32.88507027176674L13.940058553016744,32.91627027176674L14.099258553016744,32.94587027176674L14.258758553016744,32.97387027176674L14.418558553016744,33.00017027176674L14.578658553016744,33.024870271766744L14.738958553016744,33.04787027176675L14.899558553016744,33.06937027176674L15.060358553016744,33.08917027176675L15.221258553016744,33.10737027176675L15.382458553016745,33.12407027176675L15.543858553016744,33.13907027176675L15.705358553016744,33.152470271766745L15.866958553016744,33.16417027176674L16.028758553016743,33.17437027176675L16.190658553016746,33.18297027176674L16.352658553016745,33.18997027176675L16.514658553016744,33.195470271766744L16.676858553016743,33.199370271766746L16.839058553016745,33.20157027176675L16.998558553016746,33.202370271766746L17.160658553016745,33.20157027176675L17.322958553016743,33.199370271766746L17.484958553016746,33.195470271766744L17.646958553016745,33.19007027176674L17.809058553016744,33.183070271766745L17.970858553016743,33.174470271766744L18.132658553016743,33.164270271766746L18.294258553016746,33.15257027176674L18.455658553016743,33.139170271766744L18.617058553016744,33.124170271766744L18.778158553016745,33.10757027176675L18.939158553016746,33.08937027176675L19.099958553016744,33.06957027176674L19.260558553016743,33.04807027176675L19.420858553016746,33.025070271766744L19.580858553016746,33.00037027176675L19.740658553016743,32.97407027176674L19.900158553016745,32.94607027176674L20.059458553016743,32.916570271766744L20.218358553016746,32.885370271766746L20.376958553016745,32.852570271766744L20.535158553016746,32.818170271766746L20.693058553016744,32.782170271766745L20.850558553016743,32.74457027176675L21.007658553016743,32.70527027176674L21.164358553016744,32.664470271766746L21.320758553016745,32.62197027176674L21.476558553016744,32.57787027176674L21.631958553016744,32.53227027176675L21.786858553016746,32.485070271766745L21.941358553016745,32.436270271766745L22.095358553016744,32.385970271766745L22.248858553016746,32.33407027176675L22.401758553016744,32.280670271766745L22.554258553016744,32.22577027176675L22.706158553016746,32.16927027176675L22.857458553016745,32.11127027176674L23.008258553016745,32.05177027176674L23.158558553016743,31.990770271766745L23.305658553016745,31.929470271766746L23.454658553016746,31.865570271766746L23.603158553016744,31.800270271766745L23.750758553016745,31.733470271766745L23.897858553016743,31.665370271766744L24.044258553016746,31.595770271766746L24.189758553016745,31.524670271766745L24.334758553016744,31.452170271766743L24.478858553016746,31.378170271766745L24.622258553016746,31.302870271766743L24.764858553016744,31.226070271766744L24.906758553016743,31.147770271766746L25.047758553016745,31.068170271766746L25.187958553016745,30.986970271766744L25.327358553016744,30.904570271766744L25.465958553016744,30.820670271766744L25.603558553016743,30.735370271766744L25.740358553016744,30.648570271766744L25.876258553016743,30.560570271766746L26.011258553016745,30.471070271766745L26.145358553016745,30.380270271766744L26.278458553016744,30.288070271766745L26.410758553016745,30.194470271766743L26.541958553016745,30.099670271766744L26.672258553016743,30.003470271766744L26.801558553016744,29.905870271766744L26.929958553016746,29.807070271766744L27.057358553016744,29.706870271766746L27.183658553016745,29.605470271766745L27.308958553016744,29.502770271766746L27.433258553016746,29.398870271766743L27.556558553016746,29.293670271766743L27.678758553016745,29.187270271766746L27.799958553016744,29.079570271766745L27.920058553016744,28.970670271766746L28.039158553016744,28.860770271766743L28.157258553016746,28.749570271766746L28.274158553016743,28.637170271766745L28.390558553016746,28.523170271766745L28.455958553016746,28.458170271766743L28.570058553016743,28.342970271766745L28.683058553016746,28.226670271766743L28.794858553016745,28.109270271766743L28.905558553016746,27.990870271766745L29.015158553016743,27.871370271766743L29.123458553016743,27.750770271766743L29.230658553016745,27.629270271766746L29.336558553016744,27.506570271766744L29.441258553016745,27.382870271766745L29.544658553016745,27.258270271766744L29.646858553016745,27.132570271766745L29.747758553016745,27.005670271766746L29.847358553016743,26.878070271766745L29.945658553016745,26.749270271766743L30.042658553016743,26.619570271766744L30.138458553016743,26.488870271766743L30.232758553016744,26.357270271766744L30.325758553016744,26.224670271766744L30.417358553016744,26.091170271766746L30.507658553016743,25.956670271766743L30.596558553016745,25.821270271766746L30.684058553016744,25.685070271766744L30.770258553016745,25.547870271766744L30.854958553016743,25.409870271766746L30.938258553016745,25.271070271766746L31.020258553016745,25.131270271766745L31.100858553016746,24.990670271766746L31.179858553016743,24.849370271766745L31.257558553016743,24.707170271766746L31.333758553016743,24.564270271766745L31.408558553016743,24.420570271766746L31.481958553016746,24.276070271766745L31.553858553016745,24.130870271766746L31.624358553016744,23.984970271766745L31.693458553016743,23.838270271766746L31.761058553016746,23.690870271766745L31.827158553016744,23.542970271766745L31.892258553016745,23.393570271766745L31.928458553016746,23.308870271766743L31.990858553016743,23.159170271766744L32.05175855301674,23.009070271766745L32.11125855301674,22.858270271766745L32.169258553016746,22.706970271766746L32.225758553016746,22.555070271766745L32.28065855301675,22.402670271766745L32.33415855301675,22.249670271766746L32.38595855301675,22.096170271766745L32.436358553016746,21.942270271766745L32.485158553016745,21.787770271766746L32.53235855301675,21.632770271766745L32.57795855301674,21.477470271766745L32.62205855301674,21.321570271766745L32.66455855301675,21.165370271766744L32.705358553016744,21.008670271766743L32.74465855301675,20.851470271766743L32.782258553016746,20.693970271766744L32.81835855301674,20.536070271766743L32.85275855301674,20.377870271766746L32.88555855301674,20.219370271766746L32.91675855301674,20.060370271766743L32.94635855301674,19.901170271766745L32.974258553016746,19.741670271766743L33.000558553016745,19.581870271766746L33.025358553016744,19.421770271766743L33.04835855301675,19.261370271766744L33.06985855301674,19.100870271766745L33.08965855301675,18.940170271766746L33.10785855301675,18.779170271766745L33.12455855301675,18.617970271766744L33.13955855301675,18.456670271766743L33.152958553016745,18.295070271766743L33.16465855301674,18.133470271766743L33.17485855301675,17.971770271766744L33.18345855301674,17.809770271766745L33.19045855301675,17.647870271766745L33.19585855301674,17.485870271766746L33.19975855301674,17.323670271766744L33.20205855301675,17.161470271766746L33.202858553016746,17.001870271766744L33.202858553016746,16.998070271766746L33.20205855301675,16.839770271766746Z" fill="#FFFFFF" fill-opacity="1"/></g><g><path d="M33.997006990516745,17.334923885047996L33.99300699051675,17.504723885047994L33.987406990516746,17.674523885047993L33.98000699051674,17.844323885047995L33.971106990516745,18.013923885047994L33.960406990516745,18.183523885047993L33.948006990516745,18.353123885047996L33.934106990516746,18.522423885047996L33.91850699051675,18.691723885047995L33.90100699051674,18.860823885047996L33.88190699051675,19.029723885047993L33.86120699051674,19.198523885047994L33.83870699051675,19.367023885047995L33.81450699051675,19.535323885047994L33.78860699051675,19.703423885047993L33.76100699051675,19.871223885047996L33.73170699051674,20.038723885047993L33.70070699051674,20.205923885047994L33.668006990516744,20.372823885047996L33.63350699051674,20.539423885047995L33.59750699051674,20.705623885047995L33.55960699051674,20.871423885047996L33.520106990516744,21.036923885047994L33.47890699051675,21.201923885047993L33.43610699051674,21.366523885047993L33.391506990516746,21.530623885047994L33.34520699051674,21.694323885047993L33.29740699051674,21.857523885047996L33.247906990516746,22.020123885047994L33.196706990516745,22.182423885047996L33.14390699051675,22.343923885047996L33.089506990516746,22.505023885047994L33.033406990516745,22.665623885047996L32.975806990516745,22.825523885047996L32.91660699051675,22.984823885047994L32.85580699051675,23.143523885047994L32.79350699051675,23.301623885047995L32.729706990516746,23.459123885047994L32.664206990516746,23.615923885047994L32.62570699051675,23.706323885047993L32.55830699051675,23.861323885047995L32.488906990516746,24.016423885047995L32.41810699051675,24.170923885047994L32.345706990516746,24.324623885047995L32.271806990516744,24.477723885047993L32.19640699051674,24.630023885047994L32.11950699051675,24.781623885047996L32.04100699051674,24.932423885047996L31.961006990516744,25.082423885047994L31.879606990516745,25.231723885047995L31.796606990516743,25.380123885047993L31.712106990516745,25.527723885047994L31.626106990516746,25.674423885047993L31.538606990516744,25.820223885047994L31.449706990516745,25.965223885047994L31.359306990516746,26.109123885047996L31.267506990516743,26.252323885047996L31.174106990516744,26.394523885047995L31.079306990516745,26.535723885047993L30.983106990516745,26.675923885047993L30.885506990516745,26.815223885047995L30.786506990516745,26.953423885047993L30.686006990516745,27.090723885047993L30.584206990516744,27.226923885047995L30.481106990516743,27.362023885047993L30.376506990516745,27.496123885047993L30.270606990516743,27.629223885047995L30.163406990516744,27.761123885047994L30.055006990516745,27.892123885047994L29.945106990516745,28.021823885047993L29.834106990516744,28.150523885047996L29.721706990516743,28.278123885047993L29.608206990516745,28.404423885047994L29.493406990516746,28.529723885047993L29.377406990516743,28.653923885047995L29.260206990516746,28.776923885047996L29.141806990516745,28.898823885047996L29.022306990516743,29.019423885047996L28.952706990516745,29.088623885047994L28.832006990516746,29.206923885047996L28.709506990516743,29.324723885047995L28.585906990516744,29.441223885047993L28.461206990516743,29.556523885047994L28.335206990516745,29.670623885047995L28.208206990516743,29.783523885047995L28.080006990516743,29.895123885047994L27.950806990516746,30.005523885047996L27.820406990516744,30.114523885047994L27.688906990516745,30.222323885047995L27.556406990516745,30.328723885047996L27.422806990516744,30.433923885047996L27.288106990516745,30.537723885047996L27.152406990516745,30.640123885047995L27.015606990516744,30.741223885047994L26.877806990516746,30.840823885047996L26.739006990516746,30.939123885047994L26.599206990516745,31.035923885047996L26.458406990516746,31.131423885047994L26.316706990516746,31.225323885047995L26.174006990516745,31.317923885047996L26.030406990516745,31.409023885047993L25.885906990516744,31.498623885047994L25.740406990516746,31.586723885047995L25.594106990516746,31.673423885047995L25.446906990516744,31.758523885047996L25.298906990516745,31.842223885047993L25.149906990516744,31.924323885047993L25.000306990516744,32.005023885048L24.849806990516743,32.084123885047994L24.698606990516744,32.161823885047994L24.546606990516743,32.237923885048L24.393806990516744,32.312523885047995L24.240406990516746,32.385523885047995L24.086206990516743,32.45712388504799L23.931406990516745,32.52712388504799L23.775906990516745,32.595523885047996L23.619706990516743,32.662523885047996L23.465506990516744,32.726923885047995L23.308006990516745,32.79082388504799L23.150006990516744,32.853223885047996L22.991206990516744,32.91412388504799L22.832006990516746,32.97342388504799L22.672106990516745,33.03102388504799L22.511606990516743,33.087123885047994L22.350606990516745,33.14162388504799L22.189006990516745,33.194423885047996L22.026906990516746,33.245723885047994L21.864206990516745,33.29532388504799L21.701006990516746,33.343223885048L21.537406990516743,33.389423885048L21.373306990516745,33.434123885047995L21.208706990516745,33.47702388504799L21.043706990516746,33.518323885048L20.878306990516744,33.557823885047995L20.712506990516744,33.59582388504799L20.546306990516744,33.631923885047996L20.379806990516744,33.666523885047994L20.212906990516746,33.699323885047995L20.045706990516745,33.730323885047994L19.878106990516745,33.759723885048L19.710306990516745,33.787323885047996L19.542206990516746,33.813423885047996L19.373906990516744,33.837623885048L19.205406990516746,33.860123885048L19.036606990516745,33.881023885047995L18.867706990516744,33.900123885048L18.698606990516744,33.91752388504799L18.529306990516744,33.933323885048L18.359906990516745,33.947423885047996L18.190406990516745,33.959823885047996L18.020706990516743,33.97042388504799L17.851106990516744,33.979523885047996L17.681306990516745,33.98692388504799L17.511606990516743,33.992623885048L17.341806990516744,33.996823885047995L17.171906990516746,33.999223885047996L17.002006990516744,34.000023885047995L16.835006990516746,33.999223885047996L16.665206990516744,33.996823885047995L16.495406990516745,33.992823885048L16.325706990516746,33.987223885047996L16.155906990516744,33.97982388504799L15.986206990516745,33.970923885047995L15.816606990516744,33.960223885047995L15.647106990516745,33.94792388504799L15.477806990516745,33.933923885047996L15.308506990516744,33.918323885048L15.139406990516745,33.90082388504799L14.970506990516744,33.881723885048L14.801706990516745,33.86102388504799L14.633206990516744,33.838623885047994L14.464806990516745,33.814323885048L14.296806990516744,33.788423885048L14.129006990516745,33.760823885048L13.961406990516744,33.73152388504799L13.794206990516745,33.70052388504799L13.627306990516745,33.667823885047994L13.460706990516744,33.63332388504799L13.294506990516744,33.59732388504799L13.128706990516745,33.55942388504799L12.963306990516745,33.519923885047994L12.798306990516744,33.478723885048L12.633706990516744,33.43592388504799L12.469506990516745,33.391323885047996L12.305906990516744,33.34502388504799L12.142706990516745,33.29722388504799L11.980006990516744,33.247723885047996L11.817806990516745,33.196523885047995L11.656206990516745,33.14382388504799L11.495106990516744,33.089323885047996L11.334606990516745,33.033223885047995L11.174706990516745,32.975623885047995L11.015306990516745,32.916423885048L10.856606990516745,32.855623885048L10.698506990516744,32.79342388504799L10.541006990516745,32.729523885047996L10.384206990516745,32.664023885047996L10.293906990516744,32.625523885048L10.138806990516745,32.558123885048L9.983716990516745,32.48882388504799L9.829276990516744,32.417923885048L9.675506990516745,32.345523885047996L9.522456990516744,32.271623885047994L9.370126990516745,32.19622388504799L9.218546990516744,32.119223885047994L9.067736990516744,32.040923885047995L8.917706990516745,31.960923885047993L8.768476990516744,31.879423885047995L8.620066990516744,31.796423885047993L8.472496990516744,31.711923885047995L8.325796990516745,31.625923885047996L8.179946990516745,31.538423885047994L8.035006990516745,31.449523885047995L7.890966990516745,31.359123885047996L7.747856990516745,31.267323885047993L7.605686990516745,31.173923885047994L7.464466990516745,31.079123885047995L7.3242269905167445,30.982923885047995L7.184966990516744,30.885323885047995L7.046716990516744,30.786323885047995L6.909476990516745,30.685823885047995L6.773276990516744,30.584023885047994L6.638106990516745,30.480923885047993L6.503996990516745,30.376323885047995L6.370956990516745,30.270423885047993L6.238986990516745,30.163323885047994L6.108116990516745,30.054823885047995L5.978336990516745,29.944923885047995L5.849666990516744,29.833923885047994L5.7221269905167444,29.721523885047993L5.595696990516744,29.608023885047995L5.470406990516745,29.493223885047996L5.3462569905167445,29.377223885047993L5.223256990516744,29.260023885047996L5.101406990516745,29.141623885047995L4.9807369905167445,29.022123885047993L4.911506990516744,28.952523885047995L4.793226990516745,28.831823885047996L4.675516990516744,28.709423885047993L4.558986990516744,28.585723885047994L4.4436669905167445,28.461023885047993L4.329556990516744,28.335123885047995L4.216686990516744,28.208023885047993L4.105056990516744,28.079923885047993L3.9946869905167444,27.950623885047996L3.8856169905167444,27.820223885047994L3.7778369905167444,27.688823885047995L3.6713769905167446,27.556223885047995L3.5662369905167446,27.422623885047994L3.4624569905167446,27.287923885047995L3.3600369905167446,27.152223885047995L3.2589969905167444,27.015523885047994L3.1593369905167448,26.877623885047996L3.0610769905167445,26.738823885047996L2.9642369905167447,26.599023885047995L2.8688069905167444,26.458223885047996L2.7748269905167446,26.316523885047996L2.6822969905167446,26.173823885047995L2.5912169905167444,26.030223885047995L2.5016069905167444,25.885723885047994L2.4134669905167447,25.740223885047996L2.3268069905167446,25.593923885047996L2.2416469905167444,25.446723885047994L2.1579869905167444,25.298723885047995L2.0758269905167444,25.149723885047994L1.9951669905167446,25.000123885047994L1.9160269905167446,24.849623885047993L1.8384069905167446,24.698423885047994L1.7622969905167445,24.546423885047993L1.6877169905167446,24.393623885047994L1.6146569905167445,24.240223885047996L1.5431269905167446,24.086023885047993L1.4731269905167446,23.931223885047995L1.4046369905167446,23.775723885047995L1.3376869905167446,23.619523885047993L1.2732769905167445,23.465323885047994L1.2093669905167446,23.307823885047995L1.1469769905167446,23.149823885047994L1.0861369905167446,22.991123885047994L1.0268769905167445,22.831823885047996L0.9691979905167446,22.671923885047995L0.9131119905167445,22.511423885047993L0.8586269905167445,22.350423885047995L0.8057709905167445,22.188823885047995L0.7545369905167445,22.026723885047996L0.7049529905167445,21.864023885047995L0.6570069905167446,21.700823885047996L0.6107269905167445,21.537223885047993L0.5661149905167445,21.373123885047995L0.5231689905167446,21.208523885047995L0.48189899051674456,21.043523885047996L0.44232599051674454,20.878123885047994L0.40443699051674453,20.712323885047994L0.36824499051674453,20.546123885047994L0.33375599051674454,20.379623885047994L0.3009649905167446,20.212723885047996L0.26988699051674453,20.045423885047995L0.24050299051674456,19.877923885047995L0.21283399051674456,19.710123885047995L0.18688099051674456,19.542023885047996L0.16262199051674456,19.373723885047994L0.14007699051674455,19.205223885047996L0.11923599051674455,19.036423885047995L0.10009139051674455,18.867523885047994L0.08264119051674455,18.698423885047994L0.06688739051674455,18.529223885047994L0.05281769051674456,18.359723885047995L0.040434590516744556,18.190223885047995L0.029720590516744555,18.020623885047996L0.020680590516744556,17.850923885047994L0.013299690516744555,17.681123885047995L0.007567900516744554,17.511423885047993L0.003485170516744554,17.341623885047994L0.001031531516744554,17.171723885047996L0.00020699051674455404,17.001923885047994L0.000976562516744554,16.834823885047996L0.003365230516744554,16.665023885047994L0.007383000516744554,16.495223885047995L0.013049890516744555,16.325423885047993L0.020365790516744555,16.155723885047994L0.029338290516744553,15.986123885047995L0.03997739051674455,15.816423885047994L0.05230299051674456,15.646923885047995L0.06629519051674455,15.477623885047995L0.08198399051674456,15.308323885047994L0.09935689051674455,15.139223885047995L0.11843599051674455,14.970223885047995L0.13920999051674454,14.801523885047995L0.16168999051674454,14.633023885047994L0.18587399051674455,14.464623885047995L0.21176199051674455,14.296623885047994L0.23935599051674455,14.128823885047995L0.26866499051674453,13.961223885047994L0.29967799051674454,13.794023885047995L0.33240499051674455,13.627123885047995L0.3668259905167445,13.460523885047994L0.40294299051674454,13.294323885047994L0.44076399051674453,13.128523885047995L0.4802719905167446,12.963123885047995L0.5214669905167445,12.798023885047995L0.5643459905167445,12.633523885047994L0.6089029905167446,12.469323885047995L0.6551179905167446,12.305723885047994L0.7029989905167445,12.142523885047995L0.7525289905167446,11.979823885047994L0.8036979905167445,11.817623885047995L0.8564959905167445,11.656023885047995L0.9109049905167446,11.494923885047994L0.9669369905167445,11.334423885047995L1.0245569905167446,11.174523885047995L1.0837669905167446,11.015123885047995L1.1445469905167445,10.856423885047995L1.2068769905167445,10.698323885047994L1.2707569905167446,10.540823885047995L1.3361769905167447,10.384023885047995L1.3746569905167445,10.293723885047994L1.4421269905167446,10.138723885047995L1.5114469905167445,9.983573885047994L1.5822869905167445,9.829113885047995L1.6546369905167446,9.675343885047994L1.7285369905167445,9.522293885047995L1.8039469905167445,9.369973885047994L1.8808769905167446,9.218383885047995L1.9593369905167446,9.067573885047995L2.0393069905167445,8.917543885047994L2.1207869905167445,8.768303885047995L2.2037669905167445,8.619903885047995L2.2882569905167447,8.472323885047995L2.3742269905167444,8.325613885047995L2.4616969905167445,8.179773885047995L2.5506369905167445,8.034833885047995L2.6410569905167445,7.890793885047994L2.7329369905167447,7.747683885047994L2.8262569905167445,7.605503885047995L2.9210369905167446,7.4642938850479945L3.0172369905167447,7.3240438850479945L3.1148669905167448,7.184793885047995L3.2138969905167447,7.046543885047995L3.3143269905167445,6.909303885047994L3.4161369905167445,6.773103885047995L3.5193069905167444,6.637933885047994L3.6238369905167445,6.503823885047995L3.7297169905167444,6.370783885047994L3.8369069905167446,6.238813885047994L3.9454069905167444,6.107943885047995L4.055206990516744,5.978163885047994L4.166276990516745,5.849493885047995L4.278606990516745,5.7219438850479944L4.392176990516744,5.595523885047995L4.506966990516744,5.470233885047994L4.622976990516745,5.346083885047994L4.740156990516745,5.223083885047995L4.8585269905167445,5.101243885047994L4.978026990516745,4.9805538850479945L5.047626990516744,4.911323885047994L5.168356990516744,4.793033885047994L5.290826990516744,4.675333885047994L5.414446990516745,4.558813885047995L5.539206990516744,4.443493885047994L5.665106990516745,4.329373885047994L5.792136990516744,4.216493885047995L5.920296990516745,4.104873885047994L6.049566990516745,3.9945038850479944L6.179936990516745,3.8854338850479944L6.311396990516744,3.7776538850479944L6.443956990516744,3.6711938850479946L6.577576990516745,3.5660638850479947L6.712256990516744,3.4622738850479946L6.847986990516745,3.3598538850479946L6.984756990516744,3.2588138850479944L7.1225569905167445,3.1591538850479948L7.261356990516744,3.0608938850479945L7.4011569905167445,2.9640538850479947L7.541936990516745,2.8686338850479944L7.683676990516744,2.7746538850479947L7.826366990516744,2.6821138850479946L7.969996990516744,2.5910338850479944L8.114536990516745,2.5014238850479944L8.259976990516744,2.4132838850479947L8.406306990516745,2.3266338850479946L8.553496990516745,2.2414738850479945L8.701536990516745,2.1578038850479944L8.850406990516744,2.0756438850479944L9.000086990516744,1.9949938850479945L9.150566990516744,1.9158538850479945L9.301806990516745,1.8382338850479945L9.453816990516744,1.7621238850479946L9.606556990516745,1.6875438850479945L9.760016990516744,1.6144838850479946L9.914176990516745,1.5429538850479945L10.069006990516744,1.4729538850479946L10.224506990516744,1.4044638850479945L10.380706990516744,1.3375138850479946L10.534906990516745,1.2731138850479946L10.692306990516744,1.2092038850479945L10.850406990516744,1.1468138850479945L11.009006990516745,1.0859738850479945L11.168306990516745,1.0267138850479947L11.328206990516744,0.9690278850479945L11.488706990516745,0.9129408850479945L11.649806990516744,0.8584668850479945L11.811306990516744,0.8056008850479945L11.973506990516745,0.7543768850479946L12.136106990516744,0.7047818850479945L12.299306990516744,0.6568438850479945L12.462906990516744,0.6105538850479946L12.627006990516744,0.5659418850479946L12.791606990516744,0.5229958850479945L12.956606990516745,0.4817258850479946L13.122006990516745,0.44214288504799454L13.287806990516744,0.40425388504799453L13.454006990516744,0.36807188504799454L13.620606990516745,0.33357588504799457L13.787506990516745,0.30079388504799454L13.954706990516744,0.26970588504799453L14.122206990516744,0.24033288504799455L14.290006990516744,0.21266288504799455L14.458106990516745,0.18669988504799456L14.626406990516745,0.16244888504799457L14.794906990516745,0.13989388504799455L14.963706990516744,0.11905288504799455L15.132606990516745,0.09990828504799455L15.301806990516745,0.08245808504799455L15.471006990516745,0.06670428504799455L15.640406990516745,0.05263458504799456L15.809906990516744,0.040251485047994556L15.979506990516745,0.029537485047994555L16.149206990516745,0.020497485047994556L16.319006990516744,0.013116585047994555L16.488706990516743,0.007384795047994554L16.658606990516745,0.003302065047994554L16.828506990516743,0.0008484260479945541L16.998306990516745,0.000023885047994554043L17.165406990516743,0.0007934570479945541L17.335106990516746,0.003182125047994554L17.504906990516744,0.007199895047994554L17.674706990516743,0.012866785047994555L17.844406990516745,0.020182685047994555L18.014106990516744,0.029155185047994553L18.183706990516743,0.03979428504799455L18.353206990516746,0.05211988504799456L18.522606990516746,0.06611208504799455L18.691806990516746,0.08180088504799456L18.861006990516746,0.09917378504799455L19.029906990516743,0.11825288504799455L19.198706990516744,0.13902688504799454L19.367206990516745,0.16150688504799454L19.535506990516744,0.18569088504799455L19.703606990516743,0.21157888504799455L19.871406990516746,0.23918088504799456L20.038906990516743,0.2684798850479945L20.206106990516744,0.2995018850479946L20.373006990516746,0.33221888504799457L20.539606990516745,0.36663988504799455L20.705806990516745,0.40275788504799453L20.871606990516746,0.44057888504799453L21.037106990516744,0.48008688504799457L21.202006990516743,0.5212888850479945L21.366706990516743,0.5641678850479945L21.530806990516744,0.6087148850479945L21.694406990516743,0.6549398850479946L21.857706990516746,0.7028108850479946L22.020306990516744,0.7523408850479946L22.182506990516746,0.8035098850479946L22.344106990516746,0.8563078850479946L22.505206990516744,0.9107268850479946L22.665706990516746,0.9667588850479946L22.825606990516743,1.0243838850479945L22.985006990516744,1.0835838850479946L23.143706990516744,1.1443638850479945L23.301806990516745,1.2067038850479945L23.459306990516744,1.2705838850479945L23.616106990516744,1.3359938850479947L23.706506990516743,1.3744838850479946L23.861506990516745,1.4419538850479945L24.016606990516745,1.5112638850479945L24.171006990516744,1.5821038850479945L24.324806990516745,1.6544638850479945L24.477906990516743,1.7283538850479945L24.630206990516744,1.8037638850479945L24.781706990516746,1.8807038850479945L24.932606990516746,1.9591538850479946L25.082606990516744,2.0391138850479944L25.231906990516745,2.1205938850479944L25.380206990516744,2.2035838850479945L25.527906990516744,2.2880638850479946L25.674506990516743,2.3740538850479944L25.820406990516744,2.4615138850479945L25.965306990516744,2.5504538850479945L26.109306990516746,2.6408738850479945L26.252406990516743,2.7327538850479947L26.394606990516746,2.8260838850479946L26.535906990516743,2.9208538850479946L26.676106990516743,3.0170638850479947L26.815406990516745,3.1146838850479948L26.953606990516743,3.2137238850479943L27.090806990516743,3.3141438850479945L27.227006990516745,3.4159538850479945L27.362206990516743,3.5191338850479945L27.496306990516743,3.6236638850479945L27.629406990516745,3.7295338850479944L27.761306990516744,3.8367338850479946L27.892206990516744,3.9452338850479944L28.022006990516743,4.055023885047994L28.150706990516746,4.166093885047995L28.278206990516743,4.278423885047995L28.404706990516743,4.391993885047994L28.529906990516743,4.506793885047995L28.654106990516745,4.622783885047995L28.777106990516746,4.7399838850479945L28.898906990516746,4.858333885047995L29.019606990516746,4.977843885047995L29.088806990516744,5.047453885047995L29.207106990516746,5.168183885047995L29.324806990516745,5.290653885047995L29.441406990516743,5.414263885047995L29.556706990516744,5.539033885047995L29.670806990516745,5.664933885047994L29.783706990516745,5.791963885047995L29.895306990516744,5.920113885047995L30.005706990516746,6.049383885047995L30.114706990516744,6.179763885047994L30.222506990516745,6.311223885047995L30.329006990516746,6.443773885047994L30.434106990516746,6.577393885047995L30.537906990516746,6.712073885047994L30.640306990516745,6.847813885047994L30.741306990516744,6.984583885047995L30.841006990516746,7.1223738850479945L30.939206990516745,7.261173885047994L31.036106990516746,7.4009738850479945L31.131506990516744,7.541753885047995L31.225506990516745,7.683493885047994L31.318006990516743,7.826193885047995L31.409206990516743,7.969813885047994L31.498806990516744,8.114353885047995L31.586906990516745,8.259803885047994L31.673606990516745,8.406123885047995L31.758706990516746,8.553313885047995L31.842406990516743,8.701353885047995L31.924506990516743,8.850213885047994L32.005106990516744,8.999903885047994L32.084306990516744,9.150373885047994L32.16190699051675,9.301633885047995L32.23810699051675,9.453623885047994L32.31260699051674,9.606373885047995L32.385706990516745,9.759823885047995L32.45730699051674,9.913983885047994L32.527206990516746,10.068823885047994L32.595706990516746,10.224323885047994L32.662706990516746,10.380423885047994L32.727106990516745,10.534723885047995L32.79100699051674,10.692123885047994L32.853406990516746,10.850223885047994L32.91430699051674,11.008923885047995L32.97340699051674,11.168123885047995L33.03110699051675,11.328023885047994L33.087306990516744,11.488523885047995L33.14180699051674,11.649623885047994L33.194606990516746,11.811223885047994L33.24580699051675,11.973323885047995L33.29550699051674,12.136023885047994L33.343306990516744,12.299123885047994L33.38960699051675,12.462823885047994L33.434306990516745,12.626923885047994L33.47720699051674,12.791423885047994L33.51850699051675,12.956423885047995L33.558006990516745,13.121923885047995L33.595906990516745,13.287723885047994L33.632106990516746,13.453823885047994L33.666706990516744,13.620423885047995L33.69940699051674,13.787323885047995L33.73040699051675,13.954523885047994L33.75990699051675,14.122023885047994L33.787506990516746,14.289823885047994L33.81350699051674,14.457923885047995L33.83780699051675,14.626223885047995L33.86030699051675,14.794823885047995L33.881206990516745,14.963523885047994L33.90030699051675,15.132523885047995L33.91770699051674,15.301623885047995L33.93350699051675,15.470823885047995L33.947606990516746,15.640223885047995L33.95990699051674,15.809823885047994L33.97060699051674,15.979423885047995L33.979706990516746,16.149023885047995L33.98710699051674,16.318823885047994L33.99280699051675,16.488623885047996L33.99690699051674,16.658523885047995L33.999406990516746,16.828323885047993L34.000206990516745,16.998123885047995L34.000206990516745,17.001923885047994L33.999406990516746,17.165223885047993L33.997006990516745,17.334923885047996ZM33.19980699051674,16.677523885047993L33.20210699051675,16.839823885047995L33.20280699051674,16.998123885047995L33.20280699051674,17.001923885047994L33.20210699051675,17.161523885047995L33.199706990516745,17.323723885047993L33.19590699051675,17.485923885047995L33.190506990516745,17.647923885047994L33.183406990516744,17.809823885047994L33.17480699051674,17.971823885047996L33.164606990516745,18.133523885047996L33.15290699051675,18.295123885047996L33.13950699051674,18.456723885047996L33.12450699051674,18.618023885047993L33.107906990516746,18.779223885047994L33.089706990516746,18.940223885047995L33.069806990516746,19.100923885047994L33.048406990516746,19.261523885047996L33.02530699051675,19.421823885047996L33.000606990516744,19.581923885047996L32.974306990516745,19.741723885047996L32.94640699051674,19.901223885047994L32.91680699051675,20.060423885047996L32.88560699051674,20.219423885047995L32.85280699051675,20.377923885047995L32.818306990516746,20.536123885047996L32.782306990516744,20.694123885047993L32.74460699051674,20.851523885047996L32.70540699051674,21.008723885047996L32.66450699051674,21.165423885047996L32.622006990516745,21.321623885047995L32.57800699051675,21.477523885047994L32.53240699051675,21.632923885047994L32.485206990516744,21.787823885047995L32.436406990516744,21.942323885047994L32.38600699051675,22.096223885047994L32.33420699051675,22.249723885047995L32.28070699051675,22.402723885047994L32.22570699051674,22.555123885047994L32.16920699051674,22.707023885047995L32.111306990516745,22.858323885047994L32.051806990516745,23.009123885047995L31.990806990516745,23.159223885047993L31.928406990516745,23.308923885047996L31.892306990516744,23.393623885047994L31.827206990516746,23.543023885047994L31.761006990516744,23.691023885047994L31.693406990516745,23.838323885047995L31.624406990516743,23.985023885047994L31.553906990516744,24.130923885047995L31.481906990516745,24.276123885047994L31.408606990516745,24.420623885047995L31.333806990516745,24.564323885047994L31.257506990516745,24.707223885047995L31.179906990516745,24.849423885047994L31.100806990516745,24.990723885047995L31.020306990516744,25.131323885047994L30.938306990516743,25.271123885047995L30.854906990516746,25.409923885047995L30.770306990516744,25.547923885047993L30.684106990516746,25.685123885047993L30.596506990516744,25.821423885047995L30.507606990516745,25.956723885047996L30.417306990516746,26.091223885047995L30.325706990516746,26.224723885047993L30.232706990516746,26.357323885047993L30.138406990516746,26.488923885047996L30.042706990516745,26.619623885047993L29.945606990516744,26.749323885047996L29.847406990516745,26.878123885047994L29.747706990516743,27.005723885047995L29.646906990516744,27.132623885047995L29.544706990516744,27.258323885047993L29.441306990516743,27.382923885047994L29.336506990516746,27.506723885047993L29.230606990516744,27.629323885047995L29.123506990516745,27.750823885047996L29.015206990516745,27.871423885047996L28.905606990516745,27.990923885047994L28.794906990516743,28.109323885047996L28.683006990516745,28.226723885047996L28.570106990516745,28.343023885047995L28.455906990516745,28.458223885047996L28.390506990516744,28.523223885047994L28.274106990516746,28.637223885047995L28.157206990516745,28.749623885047995L28.039206990516746,28.860823885047996L27.920106990516743,28.970723885047995L27.800006990516746,29.079623885047994L27.678806990516744,29.187323885047995L27.556506990516745,29.293723885047996L27.433306990516744,29.398923885047996L27.309006990516746,29.502823885047995L27.183706990516743,29.605523885047994L27.057306990516743,29.706923885047996L26.929906990516745,29.807123885047993L26.801606990516746,29.905923885047994L26.672306990516745,30.003523885047994L26.542006990516743,30.099723885047993L26.410706990516744,30.194523885047996L26.278506990516746,30.288123885047995L26.145406990516744,30.380323885047993L26.011306990516744,30.471123885047994L25.876306990516746,30.560623885047995L25.740406990516746,30.648623885047993L25.603506990516745,30.735423885047993L25.465906990516743,30.820723885047993L25.327306990516746,30.904623885047993L25.187906990516744,30.987023885047993L25.047706990516744,31.068223885047995L24.906806990516746,31.147823885047995L24.764906990516746,31.226123885047993L24.622306990516744,31.302923885047996L24.478906990516744,31.378223885047994L24.334806990516743,31.452223885047996L24.189806990516743,31.524723885047994L24.044206990516745,31.595823885047995L23.897806990516745,31.665423885047996L23.750806990516743,31.733623885047994L23.603106990516746,31.800323885047995L23.454706990516744,31.865623885047995L23.305706990516743,31.929523885047995L23.158506990516745,31.990823885047995L23.008306990516743,32.051823885047995L22.857506990516743,32.111323885047995L22.706106990516744,32.169323885047994L22.554306990516743,32.225823885047994L22.401806990516743,32.280723885048L22.248806990516744,32.334123885047994L22.095306990516743,32.386023885048L21.941306990516743,32.436323885048L21.786906990516744,32.485123885048L21.632006990516743,32.532323885047994L21.476606990516746,32.577923885047994L21.320706990516744,32.622023885047994L21.164406990516746,32.66452388504799L21.007706990516745,32.705323885047996L20.850506990516745,32.74462388504799L20.693106990516746,32.782223885048L20.535106990516745,32.81822388504799L20.376906990516744,32.85272388504799L20.218406990516744,32.88542388504799L20.059406990516745,32.916623885048L19.900206990516743,32.946123885047996L19.740706990516745,32.974123885047995L19.580906990516745,33.000423885047994L19.420806990516745,33.025123885048L19.260606990516745,33.04812388504799L19.099906990516743,33.069623885047996L18.939206990516745,33.08942388504799L18.778206990516743,33.10762388504799L18.617106990516746,33.124223885047996L18.455706990516745,33.139223885048L18.294206990516745,33.152623885047994L18.132706990516745,33.16432388504799L17.970906990516745,33.174523885047996L17.809006990516746,33.183123885048L17.647006990516743,33.190123885047996L17.485006990516744,33.195523885048L17.322906990516746,33.19942388504799L17.160706990516744,33.201623885047994L16.998606990516745,33.20242388504799L16.839006990516744,33.201623885047994L16.676806990516745,33.19942388504799L16.514706990516746,33.195523885048L16.352606990516744,33.19002388504799L16.190606990516745,33.183023885047994L16.028806990516745,33.17442388504799L15.867006990516744,33.164223885047996L15.705306990516744,33.152523885048L15.543806990516744,33.139123885047994L15.382506990516745,33.12412388504799L15.221306990516744,33.10742388504799L15.060306990516745,33.089323885047996L14.899506990516745,33.069423885047996L14.739006990516744,33.04792388504799L14.578606990516745,33.024923885048L14.418606990516745,33.000223885047994L14.258806990516744,32.973923885047995L14.099206990516745,32.945923885047996L13.940006990516745,32.916323885047994L13.781106990516745,32.88522388504799L13.622506990516744,32.852423885048L13.464306990516745,32.817923885047996L13.306406990516745,32.78182388504799L13.148906990516744,32.744223885047994L12.991806990516745,32.704923885048L12.835106990516744,32.66412388504799L12.678806990516744,32.621623885047995L12.523006990516745,32.57762388504799L12.367606990516745,32.531923885047995L12.212706990516745,32.48472388504799L12.058206990516744,32.43592388504799L11.904206990516744,32.38562388504799L11.750806990516745,32.33382388504799L11.597806990516744,32.28032388504799L11.445406990516744,32.22532388504799L11.293506990516745,32.16882388504799L11.142206990516744,32.11082388504799L10.991406990516744,32.051423885047996L10.841206990516744,31.990423885047996L10.691606990516744,31.928023885047995L10.606906990516745,31.891823885047994L10.457506990516745,31.826723885047993L10.309506990516745,31.760623885047995L10.162206990516745,31.693023885047996L10.015506990516744,31.624023885047993L9.869596990516744,31.553423885047994L9.724386990516745,31.481523885047995L9.579916990516745,31.408223885047995L9.436186990516745,31.333323885047996L9.293246990516744,31.257123885047996L9.151076990516744,31.179423885047996L9.009716990516745,31.100323885047995L8.869156990516744,31.019823885047995L8.729436990516744,30.937923885047994L8.590556990516745,30.854523885047996L8.452536990516744,30.769823885047995L8.315386990516744,30.683723885047996L8.179126990516744,30.596123885047994L8.043756990516744,30.507223885047996L7.909306990516744,30.416923885047993L7.775776990516745,30.325323885047993L7.643186990516744,30.232323885047993L7.511546990516744,30.138023885047996L7.380866990516744,30.042323885047995L7.251156990516744,29.945223885047994L7.1224169905167445,29.847023885047996L6.994686990516745,29.747323885047994L6.867946990516745,29.646423885047994L6.742226990516745,29.544223885047995L6.617516990516744,29.440823885047994L6.493846990516745,29.336123885047993L6.371206990516745,29.230223885047995L6.249606990516744,29.123023885047996L6.1290569905167445,29.014823885047996L6.009566990516745,28.905223885047995L5.8911369905167446,28.794523885047994L5.773776990516745,28.682623885047995L5.657486990516745,28.569723885047996L5.542276990516744,28.455523885047995L5.477316990516744,28.390123885047995L5.363256990516745,28.273723885047996L5.250906990516745,28.156823885047995L5.139726990516745,28.038823885047993L5.029706990516744,27.919623885047994L4.920866990516744,27.799623885047996L4.813236990516745,27.678323885047995L4.706816990516745,27.556123885047995L4.601626990516745,27.432923885047995L4.497676990516744,27.308623885047993L4.3949869905167445,27.183223885047994L4.293556990516745,27.056923885047993L4.193426990516745,26.929523885047995L4.094576990516744,26.801223885047996L3.9970369905167447,26.671823885047996L3.9008269905167445,26.541523885047994L3.8059369905167446,26.410323885047994L3.7123869905167446,26.278123885047993L3.6201969905167446,26.145023885047994L3.5293569905167446,26.010823885047994L3.4398969905167447,25.875923885047996L3.3518069905167445,25.740023885047993L3.2651069905167445,25.603123885047996L3.1798069905167448,25.465523885047993L3.0959069905167445,25.327023885047996L3.0134069905167444,25.187623885047994L2.9323369905167445,25.047423885047994L2.8526669905167448,24.906323885047996L2.7744369905167447,24.764423885047993L2.6976269905167447,24.621923885047995L2.6222469905167447,24.478523885047995L2.5483069905167444,24.334323885047993L2.4758069905167446,24.189423885047994L2.4047469905167445,24.043823885047996L2.3351069905167448,23.897423885047996L2.2669269905167444,23.750423885047994L2.2001869905167446,23.602723885047993L2.1348869905167445,23.454323885047994L2.0710169905167444,23.305223885047994L2.0096169905167445,23.158123885047996L1.9486369905167447,23.007823885047994L1.8891469905167446,22.857023885047994L1.8311769905167445,22.705723885047995L1.7747069905167445,22.553923885047993L1.7197469905167446,22.401423885047993L1.6663369905167447,22.248423885047995L1.6144469905167445,22.094923885047994L1.5641269905167445,21.940923885047994L1.5153669905167446,21.786523885047995L1.4681569905167446,21.631523885047994L1.4225369905167446,21.476123885047993L1.3785069905167446,21.320323885047994L1.3360469905167445,21.164023885047996L1.2951969905167446,21.007323885047995L1.2559469905167446,20.850123885047996L1.2182969905167444,20.692623885047993L1.1822769905167445,20.534723885047995L1.1478569905167446,20.376523885047995L1.1150569905167445,20.217923885047995L1.0838869905167445,20.059023885047996L1.0543269905167445,19.899823885047994L1.0263869905167446,19.740323885047996L1.0000909905167445,19.580523885047995L0.9753999905167445,19.420423885047995L0.9523399905167446,19.260123885047996L0.9309099905167445,19.099523885047994L0.9110909905167446,18.938823885047995L0.8928809905167445,18.777823885047994L0.8762929905167446,18.616723885047996L0.8613159905167446,18.455323885047996L0.8479509905167446,18.293823885047996L0.8361769905167445,18.132223885047996L0.8260059905167445,17.970523885047996L0.8174179905167446,17.808623885047993L0.8104119905167445,17.646623885047994L0.8049799905167445,17.484523885047995L0.8011119905167445,17.322523885047996L0.7988159905167446,17.160323885047994L0.7980589905167446,16.998123885047995L0.7988279905167446,16.838523885047994L0.8011419905167445,16.676323885047996L0.8050199905167446,16.514223885047993L0.8104619905167445,16.352123885047995L0.8174779905167445,16.190223885047995L0.8260859905167446,16.028323885047996L0.8362769905167445,15.866523885047995L0.8480609905167446,15.704923885047995L0.8614459905167445,15.543323885047995L0.8764419905167445,15.382023885047994L0.8930409905167446,15.220823885047995L0.9112579905167446,15.059923885047995L0.9310969905167445,14.899123885047995L0.9525449905167446,14.738523885047995L0.9756249905167446,14.578223885047995L1.0003269905167445,14.418123885047995L1.0266469905167446,14.258323885047995L1.0545969905167445,14.098823885047995L1.0841669905167446,13.939623885047995L1.1153569905167446,13.780723885047994L1.1481669905167446,13.622123885047994L1.1825969905167446,13.463823885047995L1.2186469905167445,13.306023885047994L1.2562969905167445,13.148523885047995L1.2955669905167446,12.991423885047995L1.3364369905167446,12.834723885047994L1.3789069905167446,12.678423885047994L1.4229569905167445,12.522523885047995L1.4685869905167446,12.367123885047995L1.5157869905167445,12.212223885047994L1.5645769905167446,12.057723885047995L1.6149069905167446,11.903823885047995L1.6667969905167446,11.750323885047994L1.7202269905167447,11.597423885047995L1.7751869905167446,11.444923885047995L1.8316569905167446,11.293123885047995L1.8896469905167446,11.141723885047995L1.9491269905167445,10.991023885047994L2.0100969905167445,10.840823885047994L2.0725369905167446,10.691223885047995L2.1086669905167446,10.606423885047995L2.1737169905167444,10.457023885047995L2.2398869905167444,10.309023885047994L2.3074969905167446,10.161723885047994L2.3765469905167445,10.015123885047995L2.4470369905167444,9.869163885047994L2.5189769905167445,9.723953885047994L2.5923469905167447,9.579473885047994L2.6671569905167445,9.435753885047994L2.7433869905167447,9.292803885047995L2.8210569905167446,9.150643885047995L2.9001569905167446,9.009273885047994L2.9806669905167444,8.868723885047995L3.0625969905167447,8.729003885047995L3.1459269905167444,8.590113885047995L3.2306769905167445,8.452103885047995L3.3168069905167448,8.314943885047995L3.4043369905167444,8.178683885047995L3.4932569905167448,8.043313885047995L3.5835369905167447,7.908863885047994L3.6751769905167446,7.775333885047995L3.7681869905167447,7.642743885047994L3.8625269905167445,7.511103885047994L3.9582169905167444,7.380423885047994L4.055216990516745,7.250703885047995L4.1535269905167445,7.121983885047994L4.253146990516744,6.994243885047995L4.354036990516745,6.867513885047995L4.456216990516745,6.741783885047995L4.559646990516745,6.617083885047995L4.664336990516745,6.493403885047995L4.770256990516745,6.370773885047995L4.877386990516745,6.249173885047995L4.985736990516744,6.128623885047994L5.095266990516745,6.009133885047994L5.205976990516745,5.890703885047994L5.317836990516745,5.773343885047995L5.430846990516745,5.657053885047994L5.544986990516745,5.541843885047995L5.610336990516744,5.476873885047994L5.726776990516744,5.362813885047995L5.843716990516745,5.250473885047994L5.961726990516745,5.139283885047995L6.080806990516744,5.029263885047994L6.200946990516744,4.920433885047995L6.322136990516745,4.812803885047995L6.444366990516745,4.706383885047995L6.567636990516744,4.601183885047995L6.691946990516745,4.4972338850479945L6.817266990516744,4.394553885047994L6.943606990516744,4.2931238850479945L7.070946990516744,4.192983885047995L7.199286990516745,4.094143885047995L7.328616990516744,3.9966138850479944L7.458906990516745,3.9003838850479946L7.590176990516745,3.8055038850479947L7.722386990516744,3.7119538850479947L7.8555469905167445,3.6197638850479947L7.9896269905167445,3.5289338850479948L8.124626990516745,3.4394638850479944L8.260536990516744,3.3513838850479947L8.397316990516744,3.2646838850479947L8.534986990516744,3.1793838850479945L8.673526990516745,3.0954838850479947L8.812896990516744,3.0129938850479947L8.953116990516744,2.9319038850479946L9.094156990516744,2.8522538850479946L9.235996990516744,2.7740138850479945L9.378616990516745,2.6972038850479945L9.522026990516745,2.6218338850479945L9.666186990516744,2.5478938850479946L9.811086990516744,2.4753838850479943L9.956716990516744,2.4043238850479947L10.103106990516745,2.3346938850479946L10.250106990516745,2.2665138850479947L10.397806990516745,2.1997738850479944L10.546206990516744,2.1344638850479947L10.695206990516745,2.0705938850479946L10.842406990516745,2.0092138850479944L10.992606990516745,1.9482238850479945L11.143406990516745,1.8887438850479945L11.294706990516744,1.8307738850479947L11.446606990516745,1.7742938850479946L11.599106990516745,1.7193438850479945L11.752106990516744,1.6659238850479945L11.905506990516745,1.6140438850479946L12.059506990516745,1.5637238850479946L12.214006990516745,1.5149538850479947L12.368906990516745,1.4677538850479945L12.524306990516745,1.4221338850479945L12.680206990516744,1.3780838850479946L12.836506990516744,1.3356338850479945L12.993206990516745,1.2947838850479945L13.150306990516745,1.2555238850479946L13.307806990516745,1.2178838850479945L13.465706990516745,1.1818538850479945L13.623906990516744,1.1474338850479946L13.782506990516744,1.1146338850479947L13.941406990516745,1.0834538850479944L14.100706990516745,1.0539038850479945L14.260206990516744,1.0259738850479945L14.420006990516745,0.9996588850479946L14.580006990516745,0.9749778850479945L14.740306990516745,0.9519178850479946L14.900906990516745,0.9304778850479946L15.061706990516745,0.9106588850479945L15.222606990516745,0.8924608850479946L15.383806990516744,0.8758728850479945L15.545106990516745,0.8608958850479945L15.706606990516745,0.8475208850479945L15.868306990516745,0.8357478850479946L16.030006990516746,0.8255758850479945L16.191806990516746,0.8169878850479946L16.353906990516744,0.8099818850479945L16.515906990516743,0.8045498850479945L16.678006990516746,0.8006918850479946L16.840206990516744,0.7983888850479945L17.002306990516743,0.7976308850479945L17.161906990516744,0.7984008850479946L17.324106990516743,0.8007148850479946L17.486306990516745,0.8045928850479945L17.648306990516744,0.8100348850479946L17.810306990516743,0.8170508850479945L17.972106990516746,0.8256578850479945L18.134006990516745,0.8358498850479945L18.295506990516746,0.8476338850479945L18.457106990516746,0.8610188850479945L18.618406990516746,0.8760148850479945L18.779606990516744,0.8926138850479945L18.940606990516745,0.9108308850479946L19.101306990516743,0.9306698850479945L19.262006990516745,0.9521178850479945L19.422206990516745,0.9751978850479945L19.582306990516745,0.9998958850479945L19.742106990516746,1.0262138850479945L19.901706990516743,1.0541638850479946L20.060806990516745,1.0837338850479945L20.219806990516744,1.1149238850479946L20.378406990516744,1.1477438850479946L20.536606990516745,1.1821738850479946L20.694506990516743,1.2182238850479945L20.851906990516746,1.2558738850479945L21.009106990516745,1.2951438850479946L21.165806990516746,1.3360138850479946L21.322006990516744,1.3784738850479945L21.477906990516743,1.4225238850479947L21.633306990516743,1.4681538850479945L21.788206990516745,1.5153738850479945L21.942706990516744,1.5641438850479945L22.096606990516744,1.6144838850479946L22.250206990516745,1.6663638850479945L22.403106990516743,1.7198038850479946L22.555506990516744,1.7747538850479945L22.707406990516745,1.8312338850479946L22.858706990516744,1.8892238850479945L23.009506990516744,1.9487038850479945L23.159606990516746,2.0096738850479947L23.309306990516745,2.0721138850479948L23.394006990516743,2.1082338850479947L23.543406990516743,2.1732838850479945L23.691406990516743,2.2394638850479947L23.838706990516744,2.3070738850479944L23.985406990516744,2.3761238850479947L24.131306990516745,2.4466238850479947L24.276506990516744,2.5185538850479947L24.421006990516744,2.5919238850479944L24.564706990516743,2.6667238850479946L24.707606990516744,2.7429638850479945L24.849806990516743,2.8206338850479944L24.991206990516744,2.8997238850479947L25.131706990516744,2.9802338850479946L25.271506990516745,3.0621638850479944L25.410306990516744,3.1455138850479947L25.548406990516746,3.2302438850479946L25.685506990516746,3.3163938850479946L25.821806990516745,3.4039238850479947L25.957106990516746,3.4928238850479945L26.091606990516745,3.5831138850479944L26.225106990516746,3.6747638850479944L26.357706990516746,3.7677638850479944L26.489306990516745,3.8621138850479944L26.620006990516746,3.9577838850479945L26.749706990516746,4.054793885047995L26.878506990516744,4.153103885047995L27.006206990516745,4.2527238850479945L27.133006990516744,4.353623885047995L27.258706990516746,4.455793885047995L27.383406990516743,4.559243885047994L27.507106990516746,4.663913885047995L27.629706990516745,4.769833885047994L27.751306990516746,4.8769738850479945L27.871806990516745,4.985323885047994L27.991306990516744,5.094843885047995L28.109706990516745,5.205553885047995L28.227106990516745,5.317423885047995L28.343406990516744,5.430423885047994L28.458606990516746,5.544563885047994L28.523606990516743,5.609923885047994L28.637606990516744,5.726373885047995L28.750006990516745,5.843313885047994L28.861206990516745,5.961333885047995L28.971206990516745,6.0804038850479945L29.080006990516743,6.200543885047995L29.187706990516745,6.321733885047995L29.294106990516745,6.443963885047994L29.399306990516745,6.567233885047995L29.503306990516744,6.691533885047995L29.605906990516743,6.816863885047995L29.707406990516745,6.9432038850479945L29.807506990516746,7.070543885047995L29.906306990516743,7.198883885047994L30.003906990516743,7.328213885047995L30.100106990516746,7.458513885047995L30.195006990516745,7.589773885047995L30.288506990516744,7.721983885047995L30.380706990516746,7.855143885047995L30.471606990516744,7.989223885047995L30.561006990516745,8.124233885047994L30.649106990516746,8.260133885047994L30.735806990516746,8.396923885047995L30.821106990516746,8.534593885047995L30.905006990516746,8.673123885047994L30.987506990516746,8.812503885047995L31.068606990516745,8.952723885047995L31.148206990516744,9.093753885047995L31.226506990516743,9.235593885047994L31.303306990516745,9.378223885047994L31.378606990516744,9.521623885047994L31.452606990516745,9.665773885047994L31.525106990516743,9.810683885047995L31.596206990516745,9.956313885047994L31.665806990516746,10.102623885047995L31.734006990516743,10.249723885047995L31.800806990516744,10.397423885047994L31.866006990516745,10.545723885047995L31.929906990516745,10.694823885047995L31.991306990516744,10.842023885047995L32.05230699051675,10.992223885047995L32.111706990516744,11.143023885047995L32.169706990516744,11.294323885047994L32.226206990516744,11.446223885047994L32.28120699051674,11.598723885047994L32.33460699051675,11.751623885047994L32.38640699051675,11.905123885047994L32.43670699051675,12.059123885047995L32.48550699051675,12.213623885047994L32.53270699051674,12.368523885047994L32.57840699051675,12.523923885047994L32.622406990516744,12.679823885047995L32.66490699051675,12.836123885047995L32.705706990516745,12.992823885047995L32.74500699051674,13.149923885047995L32.78260699051675,13.307423885047994L32.81860699051674,13.465323885047994L32.85310699051674,13.623523885047994L32.885906990516744,13.782123885047994L32.91710699051674,13.941023885047995L32.94660699051674,14.100223885047994L32.97460699051675,14.259823885047995L33.00080699051674,14.419623885047995L33.025506990516746,14.579623885047994L33.048606990516745,14.740023885047995L33.070006990516745,14.900523885047994L33.089906990516745,15.061323885047994L33.10800699051674,15.222223885047995L33.124606990516746,15.383423885047995L33.13960699051675,15.544823885047995L33.153006990516744,15.706223885047995L33.16470699051674,15.867823885047995L33.174906990516746,16.029623885047993L33.18350699051675,16.191423885047996L33.19060699051674,16.353523885047995L33.19600699051674,16.515523885047994L33.19980699051674,16.677523885047993ZM17.000506990516744,32.105823885048Q17.371306990516743,32.105823885048,17.741706990516743,32.087623885048Q18.112006990516743,32.069423885047996,18.481106990516743,32.033023885047996Q18.850106990516746,31.996723885047995,19.216906990516744,31.942323885047994Q19.583706990516745,31.887823885047993,19.947406990516743,31.815523885047995Q20.311106990516745,31.743223885047996,20.670906990516745,31.653023885047993Q21.030606990516745,31.562923885047994,21.385406990516746,31.455323885047996Q21.740306990516746,31.347723885047994,22.089406990516746,31.222723885047994Q22.438606990516746,31.097823885047994,22.781206990516743,30.955923885047994Q23.123806990516744,30.814023885047995,23.459006990516745,30.655423885047995Q23.794206990516745,30.496923885047995,24.121306990516743,30.322123885047993Q24.448306990516745,30.147323885047996,24.766406990516746,29.956623885047996Q25.084406990516744,29.766023885047993,25.392806990516746,29.560023885047993Q25.701106990516745,29.354023885047994,25.998906990516744,29.133123885047993Q26.296806990516746,28.912223885047993,26.583406990516746,28.676923885047994Q26.870106990516746,28.441723885047995,27.144906990516745,28.192623885047993Q27.419606990516744,27.943623885047995,27.681806990516744,27.681423885047995Q27.944006990516744,27.419223885047995,28.193106990516746,27.144423885047996Q28.442106990516745,26.869623885047993,28.677406990516744,26.583023885047993Q28.912606990516746,26.296323885047993,29.133506990516743,25.998523885047994Q29.354406990516743,25.700623885047996,29.560406990516743,25.392323885047993Q29.766406990516746,25.084023885047994,29.957106990516746,24.765923885047993Q30.147706990516745,24.447823885047995,30.322506990516743,24.120823885047994Q30.497306990516744,23.793823885047996,30.655906990516744,23.458523885047995Q30.814406990516744,23.123323885047995,30.956306990516744,22.780723885047994Q31.098206990516744,22.438123885047993,31.223206990516744,22.089023885047993Q31.348106990516744,21.739823885047993,31.455706990516745,21.385023885047996Q31.563406990516743,21.030123885047995,31.653506990516746,20.670423885047995Q31.743606990516746,20.310723885047995,31.815906990516744,19.947023885047994Q31.888306990516746,19.583323885047996,31.942706990516744,19.216523885047994Q31.997106990516745,18.849723885047993,32.03350699051674,18.480623885047994Q32.069806990516746,18.111623885047994,32.088006990516746,17.741223885047994Q32.106206990516746,17.370823885047994,32.106206990516746,17.000023885047995Q32.106206990516746,16.629223885047995,32.088006990516746,16.258823885047995Q32.069806990516746,15.888423885047995,32.03350699051674,15.519423885047994Q31.997106990516745,15.150423885047994,31.942706990516744,14.783523885047995Q31.888306990516746,14.416723885047995,31.815906990516744,14.053023885047995Q31.743606990516746,13.689323885047994,31.653506990516746,13.329623885047994Q31.563406990516743,12.969923885047995,31.455706990516745,12.615123885047995Q31.348106990516744,12.260223885047994,31.223206990516744,11.911123885047994Q31.098206990516744,11.561923885047994,30.956306990516744,11.219323885047995Q30.814406990516744,10.876723885047994,30.655906990516744,10.541523885047994Q30.497306990516744,10.206323885047995,30.322506990516743,9.879253885047994Q30.147706990516745,9.552213885047994,29.957106990516746,9.234143885047995Q29.766406990516746,8.916073885047995,29.560406990516743,8.607743885047995Q29.354406990516743,8.299413885047995,29.133506990516743,8.001563885047995Q28.912606990516746,7.703723885047995,28.677406990516744,7.417063885047995Q28.442106990516745,7.130413885047995,28.193106990516746,6.855653885047994Q27.944006990516744,6.5808938850479946,27.681806990516744,6.318673885047994Q27.419606990516744,6.056463885047995,27.144906990516745,5.8074338850479945Q26.870106990516746,5.558403885047994,26.583406990516746,5.3231538850479945Q26.296806990516746,5.087903885047995,25.998906990516744,4.867003885047994Q25.701106990516745,4.646103885047995,25.392806990516746,4.4400838850479944Q25.084406990516744,4.234063885047995,24.766406990516746,4.043423885047995Q24.448306990516745,3.8527838850479945,24.121306990516743,3.6779738850479946Q23.794206990516745,3.5031738850479948,23.459006990516745,3.3446238850479943Q23.123806990516744,3.1860738850479944,22.781206990516743,3.0441638850479946Q22.438606990516746,2.9022538850479944,22.089406990516746,2.7773338850479945Q21.740306990516746,2.6524038850479945,21.385406990516746,2.5447538850479945Q21.030606990516745,2.4371138850479945,20.670906990516745,2.3470138850479945Q20.311106990516745,2.2569038850479948,19.947406990516743,2.1845638850479947Q19.583706990516745,2.1122238850479946,19.216906990516744,2.0578038850479947Q18.850106990516746,2.0033938850479944,18.481106990516743,1.9670538850479946Q18.112006990516743,1.9307038850479945,17.741706990516743,1.9125038850479945Q17.371306990516743,1.8943138850479946,17.000506990516744,1.8943138850479946Q16.629606990516745,1.8943138850479946,16.259306990516745,1.9125038850479945Q15.888906990516745,1.9307038850479945,15.519806990516745,1.9670538850479946Q15.150806990516745,2.0033938850479944,14.784006990516744,2.0578038850479947Q14.417206990516744,2.1122238850479946,14.053506990516745,2.1845638850479947Q13.689806990516745,2.2569038850479948,13.330106990516745,2.3470138850479945Q12.970406990516745,2.4371138850479945,12.615506990516744,2.5447538850479945Q12.260606990516745,2.6524038850479945,11.911506990516745,2.7773338850479945Q11.562306990516744,2.9022538850479944,11.219706990516745,3.0441638850479946Q10.877206990516745,3.1860738850479944,10.541906990516745,3.3446238850479943Q10.206706990516745,3.5031738850479948,9.879676990516744,3.6779738850479946Q9.552636990516744,3.8527838850479945,9.234566990516745,4.043423885047995Q8.916506990516744,4.234063885047995,8.608176990516744,4.4400838850479944Q8.299846990516745,4.646103885047995,8.001996990516744,4.867003885047994Q7.704146990516745,5.087903885047995,7.417496990516745,5.3231538850479945Q7.130846990516744,5.558403885047994,6.856076990516745,5.8074338850479945Q6.581316990516744,6.056463885047995,6.319106990516745,6.318673885047994Q6.056886990516745,6.5808938850479946,5.807856990516744,6.855653885047994Q5.558826990516745,7.130413885047995,5.323576990516744,7.417063885047995Q5.0883269905167445,7.703723885047995,4.867426990516744,8.001563885047995Q4.646526990516745,8.299413885047995,4.440516990516745,8.607743885047995Q4.234496990516744,8.916073885047995,4.0438469905167445,9.234143885047995Q3.8532069905167448,9.552213885047994,3.6784069905167445,9.879253885047994Q3.5035969905167446,10.206323885047995,3.3450469905167446,10.541523885047994Q3.1864969905167446,10.876723885047994,3.0445969905167445,11.219323885047995Q2.9026869905167447,11.561923885047994,2.7777569905167447,11.911023885047994Q2.6528269905167448,12.260223885047994,2.5451869905167444,12.615123885047995Q2.4375369905167448,12.969923885047995,2.3474369905167447,13.329623885047994Q2.2573369905167446,13.689323885047994,2.1849869905167445,14.053023885047995Q2.1126469905167444,14.416723885047995,2.0582369905167446,14.783523885047995Q2.0038269905167447,15.150423885047994,1.9674769905167446,15.519423885047994Q1.9311269905167445,15.888423885047995,1.9129369905167446,16.258823885047995Q1.8947369905167446,16.629223885047995,1.8947369905167446,17.000023885047995Q1.8947369905167446,17.370823885047994,1.9129369905167446,17.741223885047994Q1.9311269905167445,18.111623885047994,1.9674769905167446,18.480623885047994Q2.0038269905167447,18.849723885047993,2.0582369905167446,19.216523885047994Q2.1126469905167444,19.583323885047996,2.1849869905167445,19.947023885047994Q2.2573369905167446,20.310723885047995,2.3474369905167447,20.670423885047995Q2.4375369905167448,21.030123885047995,2.5451869905167444,21.385023885047996Q2.6528269905167448,21.739823885047993,2.7777569905167447,22.089023885047993Q2.9026869905167447,22.438123885047993,3.0445969905167445,22.780723885047994Q3.1864969905167446,23.123323885047995,3.3450469905167446,23.458523885047995Q3.5035969905167446,23.793823885047996,3.6784069905167445,24.120823885047994Q3.8532069905167448,24.447823885047995,4.0438469905167445,24.765923885047993Q4.234496990516744,25.084023885047994,4.440516990516745,25.392323885047993Q4.646526990516745,25.700623885047996,4.867426990516744,25.998523885047994Q5.088336990516744,26.296323885047993,5.323576990516744,26.583023885047993Q5.558826990516745,26.869623885047993,5.807856990516744,27.144423885047996Q6.056886990516745,27.419223885047995,6.319106990516745,27.681423885047995Q6.581316990516744,27.943623885047995,6.856076990516745,28.192623885047993Q7.130846990516744,28.441723885047995,7.417496990516745,28.676923885047994Q7.704146990516745,28.912223885047993,8.001996990516744,29.133123885047993Q8.299846990516745,29.354023885047994,8.608176990516744,29.560023885047993Q8.916506990516744,29.766023885047993,9.234566990516745,29.956623885047996Q9.552636990516744,30.147323885047996,9.879676990516744,30.322123885047993Q10.206706990516745,30.496923885047995,10.541906990516745,30.655423885047995Q10.877206990516745,30.814023885047995,11.219706990516745,30.955923885047994Q11.562306990516744,31.097823885047994,11.911506990516745,31.222723885047994Q12.260606990516745,31.347723885047994,12.615506990516744,31.455323885047996Q12.970406990516745,31.562923885047994,13.330106990516745,31.653023885047993Q13.689806990516745,31.743223885047996,14.053506990516745,31.815523885047995Q14.417206990516744,31.887823885047993,14.784006990516744,31.942323885047994Q15.150806990516745,31.996723885047995,15.519806990516745,32.033023885047996Q15.888906990516745,32.069423885047996,16.259306990516745,32.087623885048Q16.629606990516745,32.105823885048,17.000506990516744,32.105823885048ZM14.212406990516744,11.660923885047994C14.314606990516744,12.197423885047995,14.340106990516745,12.759523885047994,14.340106990516745,13.296023885047994L14.340106990516745,13.296023885047994L14.340106990516745,14.241323885047995C14.314506990516744,15.135523885047995,14.365606990516744,16.029623885047993,14.442306990516744,16.923823885047995C14.467806990516744,16.974923885047996,14.493406990516744,17.051623885047995,14.544506990516744,17.102723885047993C14.570006990516745,17.153823885047995,14.672206990516745,17.102723885047993,14.774406990516745,16.974923885047996C14.876606990516745,16.847223885047995,14.978806990516745,16.693923885047994,15.081006990516745,16.566223885047993C15.234306990516744,16.361823885047993,15.413106990516745,16.131823885047993,15.566406990516745,15.927523885047995C16.358406990516745,14.956623885047994,17.201506990516744,14.062423885047995,18.223406990516743,13.347123885047994C19.679606990516746,12.325223885047995,21.289206990516746,11.660923885047994,23.026406990516744,11.379923885047994C23.741806990516743,11.252223885047995,24.457106990516746,11.201123885047995,25.172406990516745,11.252223885047995C26.219906990516744,11.328823885047994,27.267406990516744,11.533223885047995,28.263806990516745,11.890923885047995C28.723606990516746,12.044223885047995,29.106806990516745,12.299623885047994,29.413406990516744,12.682923885047995C29.720006990516744,13.066123885047995,29.617806990516744,13.398223885047994,29.132406990516746,13.525923885047995C28.825806990516746,13.602623885047995,28.519206990516743,13.653723885047995,28.187106990516746,13.602623885047995C27.906106990516744,13.551523885047995,27.599506990516744,13.525923885047995,27.318506990516745,13.449323885047994C26.756406990516744,13.347123885047994,26.194406990516743,13.347123885047994,25.632306990516746,13.449323885047994C25.325706990516746,13.474823885047995,25.044706990516744,13.525923885047995,24.738106990516744,13.577023885047995C23.665106990516744,13.832523885047994,22.719806990516744,14.317923885047994,21.825706990516746,14.982223885047995C21.033706990516745,15.569823885047995,20.318306990516746,16.234023885047996,19.654106990516745,16.974923885047996C18.989806990516744,17.741423885047993,18.376706990516745,18.533323885047995,17.840206990516744,19.402023885047996C17.252606990516746,20.372823885047996,16.792706990516745,21.420323885047996,16.409506990516746,22.493323885047996C16.077406990516746,23.387523885047994,15.873006990516744,24.332723885047994,15.668606990516745,25.278023885047993C15.515306990516745,26.044523885047994,15.336506990516744,26.810923885047995,15.157606990516745,27.577323885047996C15.081006990516745,27.909523885047996,15.029906990516745,28.267123885047994,15.055406990516744,28.599323885047994L15.055406990516744,28.752623885047996C15.081006990516745,29.186923885047996,14.876606990516745,29.467923885047995,14.493406990516744,29.621223885047996C14.314506990516744,29.697823885047995,14.135706990516745,29.774523885047994,13.931306990516745,29.774523885047994C13.573706990516744,29.800023885047995,13.190406990516745,29.825623885047996,12.832806990516744,29.748923885047994C12.066306990516745,29.621223885047996,11.351006990516744,29.391223885047996,10.661206990516744,29.008023885047994C10.278006990516744,28.803623885047994,9.996946990516745,28.522623885047995,9.818106990516744,28.113823885047996C9.715916990516744,27.858423885047994,9.588176990516745,27.577323885047996,9.485986990516745,27.296323885047993C9.102766990516745,26.274423885047995,8.898376990516745,25.226923885047995,8.668446990516745,24.153923885047995C8.361866990516745,22.621023885047993,8.106386990516745,21.062623885047994,7.876456990516744,19.478623885047995C7.723166990516744,18.303423885047994,7.544336990516745,17.102723885047993,7.3654969905167444,15.901923885047994C7.212206990516744,14.905523885047995,7.084466990516744,13.909223885047995,6.9311869905167445,12.912823885047995C6.9056369905167445,12.657323885047994,6.8800869905167445,12.401823885047994,6.8800869905167445,12.171923885047995C6.8800869905167445,11.456523885047995,6.8800869905167445,10.741223885047994,6.9056369905167445,10.025923885047995C6.9311869905167445,9.489373885047995,7.033376990516745,8.952873885047994,7.084476990516745,8.416363885047994C7.110026990516745,8.288623885047995,7.161116990516745,8.160883885047994,7.186666990516745,8.033143885047995C7.442146990516744,6.909033885047995,8.183046990516745,6.219233885047995,9.256056990516745,5.836013885047994C9.971396990516745,5.580533885047995,10.686706990516745,5.580533885047995,11.427606990516745,5.861563885047994C11.861906990516745,6.040393885047995,12.245206990516744,6.295873885047994,12.551706990516745,6.679093885047995C12.935006990516744,7.164513885047994,13.216006990516744,7.701023885047994,13.445906990516745,8.288623885047995C13.701406990516745,8.978413885047994,13.854706990516744,9.693763885047995,14.008006990516744,10.434623885047994C14.084606990516745,10.843423885047995,14.135706990516745,11.252223885047995,14.212406990516744,11.660923885047994Z" fill-rule="evenodd" fill="#00968F" fill-opacity="1"/></g></g><g><path d="M48.73730331420899,17.84002384185791L47.097303314208986,17.84002384185791L47.097303314208986,23.00002384185791L44.277303314208986,23.00002384185791L44.277303314208986,9.120023841857911L48.777303314208986,9.120023841857911Q50.677303314208984,9.120023841857911,51.847303314208986,9.55002384185791Q53.01730331420899,9.98002384185791,53.57730331420898,10.93002384185791Q54.137303314208985,11.88002384185791,54.137303314208985,13.460023841857911Q54.137303314208985,15.18002384185791,53.48730331420899,16.16002384185791Q52.83730331420898,17.14002384185791,51.47730331420898,17.54002384185791L55.43730331420898,23.00002384185791L52.11730331420898,23.00002384185791L48.73730331420899,17.84002384185791ZM48.37730331420899,15.72002384185791Q49.497303314208985,15.72002384185791,50.11730331420898,15.54002384185791Q50.73730331420899,15.36002384185791,51.027303314208986,14.880023841857911Q51.317303314208985,14.40002384185791,51.317303314208985,13.460023841857911Q51.317303314208985,12.60002384185791,51.027303314208986,12.16002384185791Q50.73730331420899,11.720023841857909,50.11730331420898,11.55002384185791Q49.497303314208985,11.38002384185791,48.37730331420899,11.38002384185791L47.097303314208986,11.38002384185791L47.097303314208986,15.72002384185791L48.37730331420899,15.72002384185791ZM66.23730331420899,18.16002384185791L59.21730331420898,18.60002384185791Q59.277303314208986,19.880023841857913,59.98730331420899,20.47002384185791Q60.69730331420898,21.06002384185791,62.21730331420898,21.06002384185791Q63.15730331420899,21.06002384185791,64.17730331420898,20.83002384185791Q65.19730331420898,20.60002384185791,65.77730331420898,20.30002384185791L65.77730331420898,22.46002384185791Q65.25730331420898,22.76002384185791,64.13730331420899,22.98002384185791Q63.01730331420899,23.20002384185791,61.73730331420899,23.20002384185791Q59.997303314208985,23.20002384185791,58.857303314208984,22.69002384185791Q57.71730331420898,22.18002384185791,57.11730331420898,20.95002384185791Q56.51730331420899,19.72002384185791,56.51730331420899,17.60002384185791Q56.51730331420899,15.48002384185791,57.11730331420898,14.25002384185791Q57.71730331420898,13.02002384185791,58.86730331420898,12.51002384185791Q60.01730331420899,12.00002384185791,61.75730331420898,12.00002384185791Q64.37730331420899,12.00002384185791,65.35730331420899,13.23002384185791Q66.33730331420898,14.460023841857911,66.33730331420898,16.70002384185791Q66.33730331420898,17.30002384185791,66.23730331420899,18.16002384185791ZM63.857303314208984,16.36002384185791Q63.857303314208984,15.24002384185791,63.427303314208984,14.64002384185791Q62.997303314208985,14.04002384185791,61.75730331420898,14.04002384185791Q60.37730331420899,14.04002384185791,59.82730331420898,14.67002384185791Q59.277303314208986,15.30002384185791,59.21730331420898,16.72002384185791L63.857303314208984,16.36002384185791ZM71.91730331420898,12.20002384185791L74.09730331420899,12.20002384185791L74.09730331420899,14.32002384185791L71.91730331420898,14.32002384185791L71.91730331420898,23.00002384185791L69.21730331420898,23.00002384185791L69.21730331420898,14.32002384185791L67.53730331420898,14.32002384185791L67.53730331420898,12.20002384185791L69.21730331420898,12.20002384185791L69.21730331420898,12.10002384185791Q69.21730331420898,10.30002384185791,69.70730331420899,9.35002384185791Q70.19730331420898,8.40002384185791,71.07730331420899,8.060023841857909Q71.95730331420899,7.720023841857911,73.35730331420899,7.720023841857911Q73.93730331420899,7.720023841857911,74.59730331420899,7.82002384185791L74.59730331420899,9.780023841857911Q74.07730331420899,9.70002384185791,73.67730331420898,9.70002384185791Q72.93730331420899,9.70002384185791,72.56730331420898,9.91002384185791Q72.19730331420898,10.120023841857911,72.05730331420898,10.64002384185791Q71.91730331420898,11.16002384185791,71.91730331420898,12.20002384185791ZM75.87730331420899,20.40002384185791L75.87730331420899,7.80002384185791L78.57730331420899,7.80002384185791L78.57730331420899,19.760023841857908Q78.57730331420899,20.48002384185791,78.77730331420898,20.73002384185791Q78.97730331420898,20.98002384185791,79.49730331420898,20.98002384185791Q79.79730331420899,20.98002384185791,80.11730331420898,20.90002384185791L80.11730331420898,23.00002384185791Q79.55730331420898,23.12002384185791,78.89730331420898,23.12002384185791Q77.23730331420899,23.12002384185791,76.55730331420898,22.48002384185791Q75.87730331420899,21.84002384185791,75.87730331420899,20.40002384185791ZM84.73730331420899,22.920023841857912L80.51730331420899,12.20002384185791L83.47730331420898,12.20002384185791L86.17730331420898,20.12002384185791L86.29730331420899,20.12002384185791L88.81730331420898,12.20002384185791L91.67730331420898,12.20002384185791L88.01730331420899,22.12002384185791Q87.31730331420898,24.04002384185791,86.59730331420899,25.06002384185791Q85.87730331420899,26.08002384185791,84.78730331420898,26.54002384185791Q83.697303314209,27.00002384185791,81.85730331420899,27.00002384185791L81.85730331420899,24.68002384185791Q83.17730331420898,24.68002384185791,83.81730331420898,24.26002384185791Q84.45730331420899,23.84002384185791,84.73730331420899,22.920023841857912Z" fill="#FFFFFF" fill-opacity="1"/></g></g></g></svg>