<svg xmlns="http://www.w3.org/2000/svg" xmlns:xlink="http://www.w3.org/1999/xlink" fill="none" version="1.1" width="34" height="34.00006103515625" viewBox="0 0 34 34.00006103515625"><g><g><path d="M33.2018515625,16.83974638671875L33.1996515625,16.67744638671875L33.1957515625,16.51544638671875L33.1903515625,16.35344638671875L33.1833515625,16.19134638671875L33.1747515625,16.02954638671875L33.1645515625,15.86774638671875L33.1527515625,15.70614638671875L33.1394515625,15.54474638671875L33.1244515625,15.38334638671875L33.1078515625,15.22214638671875L33.0896515625,15.06124638671875L33.0698515625,14.90044638671875L33.0483515625,14.73984638671875L33.0253515625,14.57954638671875L33.0005515625,14.41954638671875L32.9743515625,14.25964638671875L32.9463515625,14.10014638671875L32.9168515625,13.94094638671875L32.8856515625,13.78204638671875L32.8528515625,13.62344638671875L32.8184515625,13.46524638671875L32.7824515625,13.30734638671875L32.7447515625,13.14984638671875L32.7055515625,12.99274638671875L32.6647515625,12.83604638671875L32.6221515625,12.67974638671875L32.5781515625,12.52384638671875L32.532551562500004,12.36844638671875L32.4853515625,12.21354638671875L32.4365515625,12.05904638671875L32.3862515625,11.90504638671875L32.334351562500004,11.75154638671875L32.2809515625,11.59864638671875L32.2259515625,11.44614638671875L32.169551562500004,11.29424638671875L32.1115515625,11.14294638671875L32.0520515625,10.99214638671875L31.9910515625,10.84184638671875L31.9297515625,10.69470638671875L31.8658515625,10.54568638671875L31.8005515625,10.39731638671875L31.7337515625,10.24959638671875L31.6655515625,10.10256638671875L31.5959515625,9.95622638671875L31.5249515625,9.81059638671875L31.4524515625,9.66568638671875L31.3784515625,9.52153638671875L31.3031515625,9.37813638671875L31.2263515625,9.23550638671875L31.1479515625,9.09366638671875L31.0683515625,8.95263638671875L30.9872515625,8.81241638671875L30.9047515625,8.67303638671875L30.8209515625,8.53450638671875L30.7355515625,8.39683638671875L30.6488515625,8.26004638671875L30.5608515625,8.12414638671875L30.4713515625,7.98913638671875L30.3805515625,7.85505638671875L30.2883515625,7.72190638671875L30.1947515625,7.58968638671875L30.0998515625,7.45842638671875L30.0036515625,7.32812638671875L29.9060515625,7.19880638671875L29.8072515625,7.07046638671875L29.7071515625,6.94311638671875L29.6057515625,6.81677638671875L29.5030515625,6.69145638671875L29.3990515625,6.56715638671875L29.2939515625,6.44387638671875L29.1875515625,6.32164638671875L29.0797515625,6.20045638671875L28.9709515625,6.08032638671875L28.8609515625,5.96124638671875L28.7498515625,5.84322638671875L28.6374515625,5.72628638671875L28.5234515625,5.60983638671875L28.4584515625,5.54448638671875L28.3432515625,5.43034638671875L28.2268515625,5.31733638671875L28.1095515625,5.20546638671875L27.9911515625,5.09475638671875L27.8716515625,4.98523638671875L27.7510515625,4.87689638671875L27.6294515625,4.76974638671875L27.5068515625,4.663836386718749L27.3831515625,4.55915638671875L27.2584515625,4.45571638671875L27.1327515625,4.3535363867187495L27.0059515625,4.25263638671875L26.8782515625,4.15302638671875L26.7495515625,4.05471638671875L26.6197515625,3.95770638671875L26.4891515625,3.86202638671875L26.3575515625,3.76767638671875L26.2248515625,3.67467638671875L26.0914515625,3.58302638671875L25.9569515625,3.49274638671875L25.8215515625,3.40383638671875L25.6852515625,3.31630638671875L25.5481515625,3.23016638671875L25.4101515625,3.14542638671875L25.2712515625,3.06208638671875L25.1315515625,2.98015638671875L24.9909515625,2.89963638671875L24.8496515625,2.82054638671875L24.7074515625,2.74288638671875L24.5644515625,2.66663638671875L24.4208515625,2.59183638671875L24.2762515625,2.51847638671875L24.1311515625,2.44653638671875L23.9851515625,2.37604638671875L23.8385515625,2.3069863867187497L23.6911515625,2.23937638671875L23.5431515625,2.17320638671875L23.3937515625,2.10815638671875L23.3091515625,2.07202638671875L23.1594515625,2.00958638671875L23.0092515625,1.94861638671875L22.8584515625,1.88913638671875L22.7072515625,1.83114638671875L22.5553515625,1.77466838671875L22.4029515625,1.71971638671875L22.2499515625,1.66628038671875L22.0964515625,1.61439938671875L21.9424515625,1.56405538671875L21.7879515625,1.51528438671875L21.6330515625,1.46806838671875L21.4776515625,1.42243638671875L21.3218515625,1.37838538671875L21.1655515625,1.33592938671875L21.0088515625,1.29505438671875L20.8517515625,1.25578938671875L20.6942515625,1.21813538671875L20.5363515625,1.18209238671875L20.3781515625,1.14766138671875L20.2195515625,1.11484238671875L20.0606515625,1.08365238671875L19.9014515625,1.05408138671875L19.7418515625,1.02613138671875L19.5821515625,0.99981138671875L19.4220515625,0.97511238671875L19.2617515625,0.95203338671875L19.1011515625,0.93058538671875L18.9404515625,0.91074638671875L18.7794515625,0.89252858671875L18.6182515625,0.87593028671875L18.4569515625,0.86093358671875L18.2953515625,0.84754858671875L18.1337515625,0.83576508671875L17.9719515625,0.82557328671875L17.8100515625,0.81696558671875L17.6481515625,0.80994948671875L17.4860515625,0.80450751671875L17.3239515625,0.80062967671875L17.1617515625,0.79831595871875L17.0021515625,0.79754638671875L16.8399515625,0.79830346571875L16.6777515625,0.80060718671875L16.5157515625,0.80446503671875L16.353651562499998,0.80989698671875L16.1916515625,0.81690308671875L16.0297515625,0.82549088671875L15.8680515625,0.83566268671875L15.7064515625,0.84743618671875L15.5449515625,0.86081118671875L15.3836515625,0.87578788671875L15.2224515625,0.89237618671875L15.0614515625,0.91057338671875L14.9006515625,0.93039238671875L14.7401515625,0.9518333867187501L14.5798515625,0.97489238671875L14.4197515625,0.99957438671875L14.2599515625,1.02588438671875L14.1004515625,1.05381638671875L13.9412515625,1.0833673867187499L13.7823515625,1.11455038671875L13.6237515625,1.14735138671875L13.4654515625,1.1817653867187499L13.3076515625,1.21779738671875L13.1501515625,1.25544138671875L12.9930515625,1.2946973867187501L12.8362515625,1.33554438671875L12.6800515625,1.3780013867187502L12.5241515625,1.42204438671875L12.3687515625,1.46766838671875L12.2137515625,1.51486538671875L12.0593515625,1.56363538671875L11.9053515625,1.61396238671875L11.7518515625,1.66584338671875L11.5988515625,1.7192613867187498L11.4464515625,1.77421338671875L11.2945515625,1.83068638671875L11.1431515625,1.88866638671875L10.9924515625,1.94813638671875L10.8421515625,2.00912638671875L10.6950015625,2.0705063867187503L10.5459715625,2.13438638671875L10.3976015625,2.19968638671875L10.2498915625,2.26642638671875L10.1028515625,2.3346063867187503L9.9565115625,2.40423638671875L9.8108815625,2.47530638671875L9.6659815625,2.54780638671875L9.5218215625,2.6217463867187503L9.3784115625,2.6971163867187498L9.2357915625,2.7739363867187503L9.0939515625,2.85216638671875L8.9529115625,2.93181638671875L8.8126915625,3.01290638671875L8.6733215625,3.09539638671875L8.534781562500001,3.17930638671875L8.397111562500001,3.26460638671875L8.2603215625,3.35129638671875L8.1244215625,3.43937638671875L7.9894215625,3.52884638671875L7.8553415625,3.61967638671875L7.7221715625,3.71186638671875L7.5899715625,3.80541638671875L7.4587015625,3.90030638671875L7.3284115625,3.99652638671875L7.1990815625,4.09405638671875L7.0707415625,4.19290638671875L6.9434015625,4.29303638671875L6.8170615625,4.39446638671875L6.6917315625,4.49715638671875L6.5674315625,4.6010963867187495L6.4441615625,4.7062963867187495L6.3219315625,4.81271638671875L6.2007415625,4.92034638671875L6.0806015625,5.02918638671875L5.9615215625,5.13920638671875L5.8435115625,5.25038638671875L5.7265715625,5.36273638671875L5.6101215625,5.47678638671875L5.5447715625,5.54176638671875L5.4306415625,5.65697638671875L5.3176315625,5.77326638671875L5.2057715625,5.89061638671875L5.0950515625,6.00904638671875L4.9855215625,6.12853638671875L4.8771815625,6.24908638671875L4.7700515625,6.37068638671875L4.6641315625,6.49332638671875L4.5594415625,6.61699638671875L4.4560115625000005,6.74170638671875L4.3538315625,6.86742638671875L4.2529415625,6.99415638671875L4.1533215625,7.12189638671875L4.0550115625,7.25062638671875L3.9580115625,7.38033638671875L3.8623215625,7.51101638671875L3.7679815625,7.64265638671875L3.6749715625,7.77524638671875L3.5833315625,7.90877638671875L3.4930515625,8.04323638671875L3.4041315625,8.17859638671875L3.3166015625,8.31485638671875L3.2304715625,8.45201638671875L3.1457215625,8.590026386718751L3.0623915625,8.728916386718751L2.9804615625,8.86863638671875L2.8999415625,9.00918638671875L2.8208415625,9.15055638671875L2.7431815625000002,9.29272638671875L2.6669515625,9.43567638671875L2.5921315625,9.57939638671875L2.5187715625,9.72386638671875L2.4468315625,9.86907638671875L2.3763415625,10.01500638671875L2.3072915624999997,10.16164638671875L2.2396815625,10.30897638671875L2.1735115625,10.45696638671875L2.1084515625,10.60638638671875L2.0723315625,10.69110638671875L2.0098915625,10.84074638671875L1.9489215625,10.99094638671875L1.8894415625,11.14164638671875L1.8314515625,11.29304638671875L1.7749785624999999,11.44484638671875L1.7200165625000001,11.59734638671875L1.6665905625000001,11.75024638671875L1.6146995625,11.90374638671875L1.5643655625,12.05764638671875L1.5155845625,12.21214638671875L1.4683785624999999,12.36704638671875L1.4227465625,12.52244638671875L1.3786955625,12.67834638671875L1.3362275625,12.83464638671875L1.2953595625,12.99134638671875L1.2560945625,13.14844638671875L1.2184405625,13.30594638671875L1.1823875625,13.46374638671875L1.1479565625,13.62204638671875L1.1151475625,13.78054638671875L1.0839575625,13.93954638671875L1.0543865625,14.09874638671875L1.0264365625,14.25824638671875L1.0001165625,14.41804638671875L0.9754175625,14.57814638671875L0.9523385625,14.73844638671875L0.9308905625,14.89904638671875L0.9110515625,15.05974638671875L0.8928337625,15.22074638671875L0.8762354625,15.38194638671875L0.8612387625,15.54324638671875L0.8478537625,15.70484638671875L0.8360702625,15.86644638671875L0.8258784625,16.02824638671875L0.8172707625,16.19014638671875L0.8102546625,16.35204638671875L0.8048126925,16.51414638671875L0.8009348525,16.676246386718752L0.7986211345,16.83844638671875L0.7978515625,16.99804638671875L0.7986086415,17.16024638671875L0.8009048625,17.32244638671875L0.8047727125,17.48444638671875L0.8102046625,17.64654638671875L0.8172107625,17.80854638671875L0.8257985624999999,17.97044638671875L0.8359703625,18.13214638671875L0.8477438625,18.29374638671875L0.8611088625,18.45524638671875L0.8760855625,18.61664638671875L0.8926738625,18.77774638671875L0.9108835625,18.93874638671875L0.9307025625,19.09944638671875L0.9521335625,19.26004638671875L0.9751925625,19.42034638671875L0.9998845625,19.58044638671875L1.0261845625000001,19.74014638671875L1.0541165625,19.89974638671875L1.0836775625000001,20.05894638671875L1.1148475625,20.21784638671875L1.1476495625,20.37644638671875L1.1820705624999999,20.53464638671875L1.2180925624999999,20.69254638671875L1.2557365625,20.85004638671875L1.2949925625,21.00724638671875L1.3358395625,21.16394638671875L1.3782965625,21.32024638671875L1.4223265625,21.47604638671875L1.4679515625000001,21.63144638671875L1.5151575625,21.78634638671875L1.5639175625,21.94084638671875L1.6142445625000001,22.09484638671875L1.6661265625000001,22.24834638671875L1.7195435625,22.40134638671875L1.7744955624999998,22.55374638671875L1.8309715625,22.70564638671875L1.8889415625,22.85694638671875L1.9484315625,23.00774638671875L2.0094115625,23.15804638671875L2.0708015625,23.30514638671875L2.1346815625,23.45414638671875L2.1999815625,23.60264638671875L2.2667215625,23.75034638671875L2.3349015625,23.89734638671875L2.4045315625,24.04374638671875L2.4756015625,24.18934638671875L2.5481015625000003,24.33424638671875L2.6220415624999998,24.47844638671875L2.6974215624999998,24.62184638671875L2.7742315625,24.76434638671875L2.8524615625,24.90624638671875L2.9321315625,25.04734638671875L3.0132015625,25.18754638671875L3.0956915625,25.32694638671875L3.1796015625,25.46544638671875L3.2649015625,25.60304638671875L3.3516015625,25.73984638671875L3.4396915625,25.87584638671875L3.5291515625,26.01074638671875L3.6199915625,26.14494638671875L3.7121815625,26.27804638671875L3.8057215625,26.41024638671875L3.9006215625,26.54144638671875L3.9968315625,26.67174638671875L4.0943715625,26.80114638671875L4.1932215625,26.92944638671875L4.2933515625,27.05684638671875L4.3947715625,27.18314638671875L4.4974715624999995,27.30854638671875L4.6014115625,27.43274638671875L4.7066115625,27.55604638671875L4.8130315625,27.67824638671875L4.9206615625,27.79944638671875L5.0295015625,27.91954638671875L5.1395215625,28.03874638671875L5.2507015625,28.15674638671875L5.3630415625,28.27364638671875L5.4771115625,28.39004638671875L5.5420615625,28.45544638671875L5.6572815625,28.56964638671875L5.7735715625,28.68254638671875L5.8909315625,28.79444638671875L6.0093615625,28.90514638671875L6.1288515625,29.01464638671875L6.2494015625,29.12294638671875L6.3710015625,29.23014638671875L6.4936415625,29.33604638671875L6.6173115625,29.44074638671875L6.7420215625,29.54414638671875L6.8677415625,29.64634638671875L6.9944815625,29.74724638671875L7.1222115625,29.84694638671875L7.2509515625,29.94514638671875L7.3806615625,30.04214638671875L7.5113415625,30.13794638671875L7.6429815625,30.23224638671875L7.7755715625,30.32524638671875L7.9091015625,30.41684638671875L8.0435515625,30.50714638671875L8.178921562500001,30.59604638671875L8.315181562500001,30.68364638671875L8.4523315625,30.76974638671875L8.5903515625,30.85444638671875L8.7292315625,30.93784638671875L8.8689515625,31.01974638671875L9.0095115625,31.10024638671875L9.1508715625,31.17934638671875L9.2930415625,31.25704638671875L9.4359815625,31.33324638671875L9.5797015625,31.40814638671875L9.7241815625,31.48144638671875L9.8693915625,31.55334638671875L10.0153215625,31.62394638671875L10.1619515625,31.69294638671875L10.3092815625,31.76054638671875L10.4572815625,31.82664638671875L10.6066915625,31.89174638671875L10.6914315625,31.92794638671875L10.8410515625,31.99034638671875L10.9912515625,32.051246386718745L11.1419515625,32.110746386718745L11.2933515625,32.16874638671875L11.4451515625,32.22524638671875L11.5976515625,32.28024638671875L11.7505515625,32.333646386718755L11.9040515625,32.385446386718755L12.0579515625,32.43584638671875L12.2124515625,32.48464638671875L12.3673515625,32.531846386718755L12.5227515625,32.57754638671875L12.6786515625,32.62154638671875L12.8349515625,32.66404638671875L12.9916515625,32.70484638671875L13.1487515625,32.744146386718754L13.3062515625,32.78174638671875L13.4641515625,32.81784638671875L13.6223515625,32.85234638671875L13.7809515625,32.88504638671875L13.9398515625,32.91624638671875L14.0990515625,32.94584638671875L14.2585515625,32.97384638671875L14.4183515625,33.00014638671875L14.5784515625,33.02484638671875L14.7387515625,33.04784638671875L14.8993515625,33.06934638671875L15.0601515625,33.08914638671875L15.2210515625,33.10734638671875L15.3822515625,33.12404638671875L15.5436515625,33.13904638671875L15.7051515625,33.15244638671875L15.8667515625,33.16414638671875L16.0285515625,33.17434638671875L16.1904515625,33.18294638671875L16.3524515625,33.18994638671875L16.5144515625,33.19544638671875L16.6766515625,33.19934638671875L16.8388515625,33.20154638671875L16.9983515625,33.20234638671875L17.1604515625,33.20154638671875L17.3227515625,33.19934638671875L17.4847515625,33.19544638671875L17.6467515625,33.19004638671875L17.8088515625,33.18304638671875L17.9706515625,33.17444638671875L18.1324515625,33.16424638671875L18.2940515625,33.15254638671875L18.4554515625,33.13914638671875L18.6168515625,33.12414638671875L18.7779515625,33.10754638671875L18.9389515625,33.08934638671875L19.0997515625,33.06954638671875L19.2603515625,33.04804638671875L19.4206515625,33.02504638671875L19.5806515625,33.00034638671875L19.7404515625,32.97404638671875L19.8999515625,32.94604638671875L20.0592515625,32.91654638671875L20.2181515625,32.88534638671875L20.3767515625,32.85254638671875L20.5349515625,32.81814638671875L20.6928515625,32.78214638671875L20.8503515625,32.74454638671875L21.0074515625,32.70524638671875L21.1641515625,32.66444638671875L21.3205515625,32.62194638671875L21.4763515625,32.57784638671875L21.6317515625,32.532246386718754L21.7866515625,32.48504638671875L21.9411515625,32.43624638671875L22.0951515625,32.38594638671875L22.2486515625,32.334046386718754L22.4015515625,32.28064638671875L22.5540515625,32.225746386718754L22.7059515625,32.169246386718754L22.8572515625,32.11124638671875L23.0080515625,32.05174638671875L23.1583515625,31.99074638671875L23.3054515625,31.92944638671875L23.4544515625,31.86554638671875L23.6029515625,31.80024638671875L23.7505515625,31.73344638671875L23.8976515625,31.66534638671875L24.0440515625,31.59574638671875L24.1895515625,31.52464638671875L24.3345515625,31.45214638671875L24.4786515625,31.37814638671875L24.6220515625,31.30284638671875L24.7646515625,31.22604638671875L24.9065515625,31.14774638671875L25.0475515625,31.06814638671875L25.1877515625,30.98694638671875L25.3271515625,30.90454638671875L25.4657515625,30.82064638671875L25.6033515625,30.73534638671875L25.7401515625,30.64854638671875L25.8760515625,30.56054638671875L26.0110515625,30.47104638671875L26.1451515625,30.38024638671875L26.2782515625,30.28804638671875L26.4105515625,30.19444638671875L26.5417515625,30.09964638671875L26.6720515625,30.00344638671875L26.8013515625,29.90584638671875L26.9297515625,29.80704638671875L27.0571515625,29.70684638671875L27.1834515625,29.60544638671875L27.3087515625,29.50274638671875L27.4330515625,29.39884638671875L27.5563515625,29.29364638671875L27.6785515625,29.18724638671875L27.7997515625,29.07954638671875L27.9198515625,28.97064638671875L28.0389515625,28.86074638671875L28.1570515625,28.74954638671875L28.2739515625,28.63714638671875L28.3903515625,28.52314638671875L28.4557515625,28.45814638671875L28.5698515625,28.34294638671875L28.6828515625,28.22664638671875L28.7946515625,28.10924638671875L28.9053515625,27.99084638671875L29.0149515625,27.87134638671875L29.1232515625,27.75074638671875L29.2304515625,27.62924638671875L29.3363515625,27.50654638671875L29.4410515625,27.38284638671875L29.5444515625,27.25824638671875L29.6466515625,27.13254638671875L29.7475515625,27.00564638671875L29.8471515625,26.87804638671875L29.9454515625,26.74924638671875L30.0424515625,26.61954638671875L30.1382515625,26.48884638671875L30.2325515625,26.35724638671875L30.3255515625,26.22464638671875L30.4171515625,26.09114638671875L30.5074515625,25.95664638671875L30.5963515625,25.82124638671875L30.6838515625,25.68504638671875L30.7700515625,25.54784638671875L30.8547515625,25.40984638671875L30.9380515625,25.27104638671875L31.0200515625,25.13124638671875L31.1006515625,24.99064638671875L31.1796515625,24.84934638671875L31.2573515625,24.70714638671875L31.3335515625,24.56424638671875L31.4083515625,24.42054638671875L31.4817515625,24.27604638671875L31.5536515625,24.13084638671875L31.6241515625,23.98494638671875L31.6932515625,23.83824638671875L31.7608515625,23.69084638671875L31.8269515625,23.54294638671875L31.8920515625,23.39354638671875L31.9282515625,23.30884638671875L31.9906515625,23.15914638671875L32.051551562499995,23.00904638671875L32.111051562499995,22.85824638671875L32.1690515625,22.70694638671875L32.2255515625,22.55504638671875L32.280451562500005,22.40264638671875L32.333951562500005,22.24964638671875L32.385751562500005,22.09614638671875L32.4361515625,21.94224638671875L32.4849515625,21.78774638671875L32.532151562500005,21.63274638671875L32.5777515625,21.47744638671875L32.6218515625,21.32154638671875L32.6643515625,21.16534638671875L32.7051515625,21.00864638671875L32.744451562500004,20.85144638671875L32.7820515625,20.69394638671875L32.8181515625,20.53604638671875L32.8525515625,20.37784638671875L32.8853515625,20.21934638671875L32.9165515625,20.06034638671875L32.9461515625,19.90114638671875L32.9740515625,19.74164638671875L33.0003515625,19.58184638671875L33.0251515625,19.42174638671875L33.0481515625,19.26134638671875L33.0696515625,19.10084638671875L33.0894515625,18.94014638671875L33.1076515625,18.77914638671875L33.1243515625,18.61794638671875L33.1393515625,18.45664638671875L33.1527515625,18.29504638671875L33.1644515625,18.13344638671875L33.1746515625,17.97174638671875L33.1832515625,17.80974638671875L33.1902515625,17.64784638671875L33.1956515625,17.48584638671875L33.1995515625,17.32364638671875L33.2018515625,17.16144638671875L33.2026515625,17.00184638671875L33.2026515625,16.99804638671875L33.2018515625,16.83974638671875Z" fill="#FFFFFF" fill-opacity="1"/></g><g><path d="M33.9968,17.3349L33.9928,17.5047L33.9872,17.6745L33.9798,17.8443L33.9709,18.0139L33.9602,18.1835L33.9478,18.3531L33.9339,18.5224L33.9183,18.6917L33.9008,18.8608L33.8817,19.0297L33.861,19.1985L33.8385,19.367L33.8143,19.5353L33.7884,19.7034L33.7608,19.8712L33.7315,20.0387L33.7005,20.2059L33.6678,20.3728L33.6333,20.5394L33.5973,20.7056L33.5594,20.8714L33.5199,21.0369L33.4787,21.2019L33.4359,21.3665L33.3913,21.5306L33.345,21.6943L33.2972,21.8575L33.2477,22.0201L33.1965,22.1824L33.1437,22.3439L33.0893,22.505L33.0332,22.6656L32.9756,22.8255L32.9164,22.9848L32.8556,23.1435L32.7933,23.3016L32.7295,23.4591L32.664,23.6159L32.6255,23.7063L32.5581,23.8613L32.4887,24.0164L32.4179,24.1709L32.3455,24.3246L32.2716,24.4777L32.1962,24.63L32.1193,24.7816L32.0408,24.9324L31.9608,25.0824L31.8794,25.2317L31.7964,25.3801L31.7119,25.5277L31.6259,25.6744L31.5384,25.8202L31.4495,25.9652L31.3591,26.1091L31.2673,26.2523L31.1739,26.3945L31.0791,26.5357L30.9829,26.6759L30.8853,26.8152L30.7863,26.9534L30.6858,27.0907L30.584,27.2269L30.4809,27.362L30.3763,27.4961L30.2704,27.6292L30.1632,27.7611L30.0548,27.8921L29.9449,28.0218L29.8339,28.1505L29.7215,28.2781L29.608,28.4044L29.4932,28.5297L29.3772,28.6539L29.26,28.7769L29.1416,28.8988L29.0221,29.0194L28.9525,29.0886L28.8318,29.2069L28.7093,29.3247L28.5857,29.4412L28.461,29.5565L28.335,29.6706L28.208,29.7835L28.0798,29.8951L27.9506,30.0055L27.8202,30.1145L27.6887,30.2223L27.5562,30.3287L27.4226,30.4339L27.2879,30.5377L27.1522,30.6401L27.0154,30.7412L26.8776,30.8408L26.7388,30.9391L26.599,31.0359L26.4582,31.1314L26.3165,31.2253L26.1738,31.3179L26.0302,31.409L25.8857,31.4986L25.7402,31.5867L25.5939,31.6734L25.4467,31.7585L25.2987,31.8422L25.1497,31.9243L25.0001,32.005L24.8496,32.0841L24.6984,32.1618L24.5464,32.2379L24.3936,32.3125L24.2402,32.3855L24.086,32.4571L23.9312,32.5271L23.7757,32.5955L23.6195,32.6625L23.4653,32.7269L23.3078,32.7908L23.1498,32.8532L22.991,32.9141L22.8318,32.9734L22.6719,33.031L22.5114,33.0871L22.3504,33.1416L22.1888,33.1944L22.0267,33.2457L21.864,33.2953L21.7008,33.3432L21.5372,33.3894L21.3731,33.4341L21.2085,33.477L21.0435,33.5183L20.8781,33.5578L20.7123,33.5958L20.5461,33.6319L20.3796,33.6665L20.2127,33.6993L20.0455,33.7303L19.8779,33.7597L19.7101,33.7873L19.542,33.8134L19.3737,33.8376L19.2052,33.8601L19.0364,33.881L18.8675,33.9001L18.6984,33.9175L18.5291,33.9333L18.3597,33.9474L18.1902,33.9598L18.0205,33.9704L17.8509,33.9795L17.6811,33.9869L17.5114,33.9926L17.3416,33.9968L17.1717,33.9992L17.0018,34L16.8348,33.9992L16.665,33.9968L16.4952,33.9928L16.3255,33.9872L16.1557,33.9798L15.986,33.9709L15.8164,33.9602L15.6469,33.9479L15.4776,33.9339L15.3083,33.9183L15.1392,33.9008L14.9703,33.8817L14.8015,33.861L14.633,33.8386L14.4646,33.8143L14.2966,33.7884L14.1288,33.7608L13.9612,33.7315L13.794,33.7005L13.6271,33.6678L13.4605,33.6333L13.2943,33.5973L13.1285,33.5594L12.9631,33.5199L12.7981,33.4787L12.6335,33.4359L12.4693,33.3913L12.3057,33.345L12.1425,33.2972L11.9798,33.2477L11.8176,33.1965L11.656,33.1438L11.4949,33.0893L11.3344,33.0332L11.1745,32.9756L11.0151,32.9164L10.8564,32.8556L10.6983,32.7934L10.5408,32.7295L10.384,32.664L10.2937,32.6255L10.1386,32.5581L9.98351,32.4888L9.82907,32.4179L9.6753,32.3455L9.52225,32.2716L9.36992,32.1962L9.21834,32.1192L9.06753,32.0409L8.9175,31.9609L8.76827,31.8794L8.61986,31.7964L8.47229,31.7119L8.32559,31.6259L8.17974,31.5384L8.0348,31.4495L7.89076,31.3591L7.74765,31.2673L7.60548,31.1739L7.46426,31.0791L7.32402,30.9829L7.18476,30.8853L7.04651,30.7863L6.90927,30.6858L6.77307,30.584L6.6379,30.4809L6.50379,30.3763L6.37075,30.2704L6.23878,30.1633L6.10791,30.0548L5.97813,29.9449L5.84946,29.8339L5.72192,29.7215L5.59549,29.608L5.4702,29.4932L5.34605,29.3772L5.22305,29.26L5.1012,29.1416L4.98053,29.0221L4.9113,28.9525L4.79302,28.8318L4.67531,28.7094L4.55878,28.5857L4.44346,28.461L4.32935,28.3351L4.21648,28.208L4.10485,28.0799L3.99448,27.9506L3.88541,27.8202L3.77763,27.6888L3.67117,27.5562L3.56603,27.4226L3.46225,27.2879L3.35983,27.1522L3.25879,27.0155L3.15913,26.8776L3.06087,26.7388L2.96403,26.599L2.8686,26.4582L2.77462,26.3165L2.68209,26.1738L2.59101,26.0302L2.5014,25.8857L2.41326,25.7402L2.3266,25.5939L2.24144,25.4467L2.15778,25.2987L2.07562,25.1497L1.99496,25.0001L1.91582,24.8496L1.8382,24.6984L1.76209,24.5464L1.68751,24.3936L1.61445,24.2402L1.54292,24.086L1.47292,23.9312L1.40443,23.7757L1.33748,23.6195L1.27307,23.4653L1.20916,23.3078L1.14677,23.1498L1.08593,22.9911L1.02667,22.8318L0.968991,22.6719L0.912905,22.5114L0.85842,22.3504L0.805564,22.1888L0.75433,22.0267L0.704746,21.864L0.6568,21.7008L0.61052,21.5372L0.565908,21.3731L0.522962,21.2085L0.481692,21.0435L0.442119,20.8781L0.40423,20.7123L0.368038,20.5461L0.333549,20.3796L0.300758,20.2127L0.26968,20.0454L0.240296,19.8779L0.212627,19.7101L0.186674,19.542L0.162415,19.3737L0.13987,19.2052L0.119029,19.0364L0.0998844,18.8675L0.0824342,18.6984L0.0666804,18.5292L0.0526107,18.3597L0.0402276,18.1902L0.0295136,18.0206L0.0204736,17.8509L0.0130927,17.6811L0.00736091,17.5114L0.00327818,17.3416L0.000824541,17.1717L0,17.0019L0.000769572,16.8348L0.00315824,16.665L0.00717601,16.4952L0.0128429,16.3254L0.0201588,16.1557L0.0291313,15.9861L0.0397704,15.8164L0.052096,15.6469L0.0660882,15.4776L0.081777,15.3083L0.0991499,15.1392L0.118229,14.9702L0.139003,14.8015L0.161483,14.633L0.185667,14.4646L0.211555,14.2966L0.239149,14.1288L0.268458,13.9612L0.299471,13.794L0.332198,13.6271L0.366619,13.4605L0.402736,13.2943L0.440557,13.1285L0.480065,12.9631L0.52126,12.798L0.564139,12.6335L0.608696,12.4693L0.654911,12.3057L0.702792,12.1425L0.752322,11.9798L0.803491,11.8176L0.856289,11.656L0.910698,11.4949L0.96673,11.3344L1.02435,11.1745L1.08356,11.0151L1.14434,10.8564L1.20667,10.6983L1.27055,10.5408L1.33597,10.384L1.37445,10.2937L1.44192,10.1387L1.51124,9.98355L1.58208,9.82909L1.65443,9.67532L1.72833,9.52227L1.80374,9.36995L1.88067,9.21836L1.95913,9.06755L2.0391,8.91752L2.12058,8.76828L2.20356,8.61988L2.28805,8.4723L2.37402,8.32559L2.46149,8.17975L2.55043,8.03481L2.64085,7.89077L2.73273,7.74766L2.82605,7.60548L2.92083,7.46427L3.01703,7.32402L3.11466,7.18477L3.21369,7.04652L3.31412,6.90928L3.41593,6.77308L3.5191,6.63791L3.62363,6.5038L3.72951,6.37076L3.8367,6.23879L3.9452,6.10792L4.055,5.97814L4.16607,5.84947L4.2784,5.72192L4.39197,5.5955L4.50676,5.47021L4.62277,5.34606L4.73995,5.22306L4.85832,5.10122L4.97782,4.98053L5.04742,4.9113L5.16815,4.79301L5.29062,4.67531L5.41424,4.55879L5.539,4.44347L5.6649,4.32935L5.79193,4.21647L5.92009,4.10485L6.04936,3.99448L6.17973,3.88541L6.31119,3.77763L6.44375,3.67117L6.57737,3.56604L6.71205,3.46225L6.84778,3.35983L6.98455,3.25879L7.12235,3.15913L7.26115,3.06087L7.40095,2.96403L7.54173,2.86861L7.68347,2.77463L7.82616,2.68209L7.96979,2.59101L8.11433,2.5014L8.25977,2.41326L8.4061,2.32661L8.55329,2.24145L8.70133,2.15778L8.8502,2.07562L8.99988,1.99497L9.15036,1.91583L9.3016,1.83821L9.45361,1.7621L9.60635,1.68752L9.75981,1.61446L9.91397,1.54293L10.0688,1.47293L10.2243,1.40444L10.3805,1.33749L10.5347,1.27309L10.6921,1.20918L10.8502,1.14679L11.0088,1.08595L11.1681,1.02669L11.328,0.969004L11.4885,0.912917L11.6496,0.858443L11.8111,0.805577L11.9733,0.754353L12.1359,0.704758L12.2991,0.65682L12.4627,0.61053L12.6268,0.565918L12.7914,0.522972L12.9564,0.481702L13.1218,0.442119L13.2876,0.40423L13.4538,0.368048L13.6204,0.333552L13.7873,0.30077L13.9545,0.269682L14.122,0.240309L14.2898,0.212639L14.4579,0.186676L14.6262,0.162425L14.7947,0.13987L14.9635,0.119029L15.1324,0.0998844L15.3016,0.0824342L15.4708,0.0666804L15.6402,0.0526107L15.8097,0.0402276L15.9793,0.0295136L16.149,0.0204736L16.3188,0.0130927L16.4885,0.00736091L16.6584,0.00327818L16.8283,0.000824541L16.9981,0L17.1652,0.000769572L17.3349,0.00315824L17.5047,0.00717601L17.6745,0.0128429L17.8442,0.0201588L18.0139,0.0291313L18.1835,0.0397704L18.353,0.052096L18.5224,0.0660882L18.6916,0.081777L18.8608,0.0991499L19.0297,0.118229L19.1985,0.139003L19.367,0.161483L19.5353,0.185667L19.7034,0.211555L19.8712,0.239157L20.0387,0.268456L20.2059,0.299478L20.3728,0.332195L20.5394,0.366616L20.7056,0.402734L20.8714,0.440555L21.0369,0.480063L21.2018,0.521265L21.3665,0.564144L21.5306,0.608691L21.6942,0.654916L21.8575,0.702787L22.0201,0.752317L22.1823,0.803486L22.3439,0.856284L22.505,0.910703L22.6655,0.966735L22.8254,1.02436L22.9848,1.08356L23.1435,1.14434L23.3016,1.20668L23.4591,1.27056L23.6159,1.33597L23.7063,1.37446L23.8613,1.44193L24.0164,1.51124L24.1708,1.58208L24.3246,1.65444L24.4777,1.72833L24.63,1.80374L24.7815,1.88068L24.9324,1.95913L25.0824,2.03909L25.2317,2.12057L25.38,2.20356L25.5277,2.28804L25.6743,2.37403L25.8202,2.46149L25.9651,2.55043L26.1091,2.64085L26.2522,2.73273L26.3944,2.82606L26.5357,2.92083L26.6759,3.01704L26.8152,3.11466L26.9534,3.2137L27.0906,3.31412L27.2268,3.41593L27.362,3.51911L27.4961,3.62364L27.6292,3.72951L27.7611,3.83671L27.892,3.94521L28.0218,4.055L28.1505,4.16607L28.278,4.2784L28.4045,4.39197L28.5297,4.50677L28.6539,4.62276L28.7769,4.73996L28.8987,4.85831L29.0194,4.97782L29.0886,5.04743L29.2069,5.16816L29.3246,5.29063L29.4412,5.41424L29.5565,5.53901L29.6706,5.66491L29.7835,5.79194L29.8951,5.92009L30.0055,6.04936L30.1145,6.17974L30.2223,6.3112L30.3288,6.44375L30.4339,6.57737L30.5377,6.71205L30.6401,6.84779L30.7411,6.98456L30.8408,7.12235L30.939,7.26115L31.0359,7.40095L31.1313,7.54173L31.2253,7.68347L31.3178,7.82617L31.409,7.96979L31.4986,8.11433L31.5867,8.25978L31.6734,8.4061L31.7585,8.55329L31.8422,8.70133L31.9243,8.85019L32.0049,8.99988L32.0841,9.15035L32.1617,9.30161L32.2379,9.4536L32.3124,9.60635L32.3855,9.7598L32.4571,9.91396L32.527,10.0688L32.5955,10.2243L32.6625,10.3804L32.7269,10.5347L32.7908,10.6921L32.8532,10.8502L32.9141,11.0089L32.9732,11.1681L33.0309,11.328L33.0871,11.4885L33.1416,11.6496L33.1944,11.8112L33.2456,11.9733L33.2953,12.136L33.3431,12.2991L33.3894,12.4628L33.4341,12.6269L33.477,12.7914L33.5183,12.9564L33.5578,13.1219L33.5957,13.2877L33.6319,13.4538L33.6665,13.6204L33.6992,13.7873L33.7302,13.9545L33.7597,14.122L33.7873,14.2898L33.8133,14.4579L33.8376,14.6262L33.8601,14.7948L33.881,14.9635L33.9001,15.1325L33.9175,15.3016L33.9333,15.4708L33.9474,15.6402L33.9597,15.8098L33.9704,15.9794L33.9795,16.149L33.9869,16.3188L33.9926,16.4886L33.9967,16.6585L33.9992,16.8283L34,16.9981L34,17.0019L33.9992,17.1652L33.9968,17.3349ZM33.1996,16.6775L33.2019,16.8398L33.2026,16.9981L33.2026,17.0019L33.2019,17.1615L33.1995,17.3237L33.1957,17.4859L33.1903,17.6479L33.1832,17.8098L33.1746,17.9718L33.1644,18.1335L33.1527,18.2951L33.1393,18.4567L33.1243,18.618L33.1077,18.7792L33.0895,18.9402L33.0696,19.1009L33.0482,19.2615L33.0251,19.4218L33.0004,19.5819L32.9741,19.7417L32.9462,19.9012L32.9166,20.0604L32.8854,20.2194L32.8526,20.3779L32.8181,20.5361L32.7821,20.6941L32.7444,20.8515L32.7052,21.0087L32.6643,21.1654L32.6218,21.3216L32.5778,21.4775L32.5322,21.6329L32.485,21.7878L32.4362,21.9423L32.3858,22.0962L32.334,22.2497L32.2805,22.4027L32.2255,22.5551L32.169,22.707L32.1111,22.8583L32.0516,23.0091L31.9906,23.1592L31.9282,23.3089L31.8921,23.3936L31.827,23.543L31.7608,23.691L31.6932,23.8383L31.6242,23.985L31.5537,24.1309L31.4817,24.2761L31.4084,24.4206L31.3336,24.5643L31.2573,24.7072L31.1797,24.8494L31.1006,24.9907L31.0201,25.1313L30.9381,25.2711L30.8547,25.4099L30.7701,25.5479L30.6839,25.6851L30.5963,25.8214L30.5074,25.9567L30.4171,26.0912L30.3255,26.2247L30.2325,26.3573L30.1382,26.4889L30.0425,26.6196L29.9454,26.7493L29.8472,26.8781L29.7475,27.0057L29.6467,27.1326L29.5445,27.2583L29.4411,27.3829L29.3363,27.5067L29.2304,27.6293L29.1233,27.7508L29.015,27.8714L28.9054,27.9909L28.7947,28.1093L28.6828,28.2267L28.5699,28.343L28.4557,28.4582L28.3903,28.5232L28.2739,28.6372L28.157,28.7496L28.039,28.8608L27.9199,28.9707L27.7998,29.0796L27.6786,29.1873L27.5563,29.2937L27.4331,29.3989L27.3088,29.5028L27.1835,29.6055L27.0571,29.7069L26.9297,29.8071L26.8014,29.9059L26.6721,30.0035L26.5418,30.0997L26.4105,30.1945L26.2783,30.2881L26.1452,30.3803L26.0111,30.4711L25.8761,30.5606L25.7402,30.6486L25.6033,30.7354L25.4657,30.8207L25.3271,30.9046L25.1877,30.987L25.0475,31.0682L24.9066,31.1478L24.7647,31.2261L24.6221,31.3029L24.4787,31.3782L24.3346,31.4522L24.1896,31.5247L24.044,31.5958L23.8976,31.6654L23.7506,31.7336L23.6029,31.8003L23.4545,31.8656L23.3055,31.9295L23.1583,31.9908L23.0081,32.0518L22.8573,32.1113L22.7059,32.1693L22.5541,32.2258L22.4016,32.2807L22.2486,32.3341L22.0951,32.386L21.9411,32.4363L21.7867,32.4851L21.6318,32.5323L21.4764,32.5779L21.3205,32.622L21.1642,32.6645L21.0075,32.7053L20.8503,32.7446L20.6929,32.7822L20.5349,32.8182L20.3767,32.8527L20.2182,32.8854L20.0592,32.9166L19.9,32.9461L19.7405,32.9741L19.5807,33.0004L19.4206,33.0251L19.2604,33.0481L19.0997,33.0696L18.939,33.0894L18.778,33.1076L18.6169,33.1242L18.4555,33.1392L18.294,33.1526L18.1325,33.1643L17.9707,33.1745L17.8088,33.1831L17.6468,33.1901L17.4848,33.1955L17.3227,33.1994L17.1605,33.2016L16.9984,33.2024L16.8388,33.2016L16.6766,33.1994L16.5145,33.1955L16.3524,33.19L16.1904,33.183L16.0286,33.1744L15.8668,33.1642L15.7051,33.1525L15.5436,33.1391L15.3823,33.1241L15.2211,33.1074L15.0601,33.0893L14.8993,33.0694L14.7388,33.0479L14.5784,33.0249L14.4184,33.0002L14.2586,32.9739L14.099,32.9459L13.9398,32.9163L13.7809,32.8852L13.6223,32.8524L13.4641,32.8179L13.3062,32.7818L13.1487,32.7442L12.9916,32.7049L12.8349,32.6641L12.6786,32.6216L12.5228,32.5776L12.3674,32.5319L12.2125,32.4847L12.058,32.4359L11.904,32.3856L11.7506,32.3338L11.5976,32.2803L11.4452,32.2253L11.2933,32.1688L11.142,32.1108L10.9912,32.0514L10.841,31.9904L10.6914,31.928L10.6067,31.8918L10.4573,31.8267L10.3093,31.7606L10.162,31.693L10.0153,31.624L9.86939,31.5534L9.72418,31.4815L9.57971,31.4082L9.43598,31.3333L9.29304,31.2571L9.15087,31.1794L9.00951,31.1003L8.86895,31.0198L8.72923,30.9379L8.59035,30.8545L8.45233,30.7698L8.31518,30.6837L8.17892,30.5961L8.04355,30.5072L7.9091,30.4169L7.77557,30.3253L7.64298,30.2323L7.51134,30.138L7.38066,30.0423L7.25095,29.9452L7.12221,29.847L6.99448,29.7473L6.86774,29.6464L6.74202,29.5442L6.61731,29.4408L6.49364,29.3361L6.371,29.2302L6.2494,29.123L6.12885,29.0148L6.00936,28.9052L5.89093,28.7945L5.77357,28.6826L5.65728,28.5697L5.54207,28.4555L5.47711,28.3901L5.36305,28.2737L5.2507,28.1568L5.13952,28.0388L5.0295,27.9196L4.92066,27.7996L4.81303,27.6783L4.70661,27.5561L4.60142,27.4329L4.49747,27.3086L4.39478,27.1832L4.29335,27.0569L4.19322,26.9295L4.09437,26.8012L3.99683,26.6718L3.90062,26.5415L3.80573,26.4103L3.71218,26.2781L3.61999,26.145L3.52915,26.0108L3.43969,25.8759L3.3516,25.74L3.2649,25.6031L3.1796,25.4655L3.0957,25.327L3.0132,25.1876L2.93213,25.0474L2.85246,24.9063L2.77423,24.7644L2.69742,24.6219L2.62204,24.4785L2.5481,24.3343L2.4756,24.1894L2.40454,24.0438L2.3349,23.8974L2.26672,23.7504L2.19998,23.6027L2.13468,23.4543L2.07081,23.3052L2.00941,23.1581L1.94843,23.0078L1.88894,22.857L1.83097,22.7057L1.7745,22.5539L1.71954,22.4014L1.66613,22.2484L1.61424,22.0949L1.56392,21.9409L1.51516,21.7865L1.46795,21.6315L1.42233,21.4761L1.3783,21.3203L1.33584,21.164L1.29499,21.0073L1.25574,20.8501L1.21809,20.6926L1.18207,20.5347L1.14765,20.3765L1.11485,20.2179L1.08368,20.059L1.05412,19.8998L1.02618,19.7403L0.999884,19.5805L0.975193,19.4204L0.952133,19.2601L0.930703,19.0995L0.910884,18.9388L0.892674,18.7778L0.876086,18.6167L0.861109,18.4553L0.847744,18.2938L0.83597,18.1322L0.825799,17.9705L0.817211,17.8086L0.810205,17.6466L0.804773,17.4845L0.800905,17.3225L0.798609,17.1603L0.797852,16.9981L0.798621,16.8385L0.800935,16.6763L0.804813,16.5142L0.810255,16.3521L0.817271,16.1902L0.825879,16.0283L0.83607,15.8665L0.847854,15.7049L0.861239,15.5433L0.876235,15.382L0.892834,15.2208L0.911051,15.0599L0.93089,14.8991L0.952338,14.7385L0.975418,14.5782L1.00012,14.4181L1.02644,14.2583L1.05439,14.0988L1.08396,13.9396L1.11515,13.7807L1.14796,13.6221L1.18239,13.4638L1.21844,13.306L1.25609,13.1485L1.29536,12.9914L1.33623,12.8347L1.3787,12.6784L1.42275,12.5225L1.46838,12.3671L1.51558,12.2122L1.56437,12.0577L1.6147,11.9038L1.66659,11.7503L1.72002,11.5974L1.77498,11.4449L1.83145,11.2931L1.88944,11.1417L1.94892,10.991L2.00989,10.8408L2.07233,10.6912L2.10846,10.6064L2.17351,10.457L2.23968,10.309L2.30729,10.1617L2.37634,10.0151L2.44683,9.86914L2.51877,9.72393L2.59214,9.57945L2.66695,9.43573L2.74318,9.29278L2.82085,9.15062L2.89995,9.00925L2.98046,8.8687L3.06239,8.72898L3.14572,8.59009L3.23047,8.45208L3.3166,8.31492L3.40413,8.17866L3.49305,8.04329L3.58333,7.90884L3.67497,7.77531L3.76798,7.64272L3.86232,7.51108L3.95801,7.3804L4.05501,7.25068L4.15332,7.12196L4.25294,6.99422L4.35383,6.86749L4.45601,6.74176L4.55944,6.61706L4.66413,6.49338L4.77005,6.37075L4.87718,6.24915L4.98553,6.1286L5.09506,6.00911L5.20577,5.89068L5.31763,5.77332L5.43064,5.65703L5.54478,5.54182L5.61013,5.47685L5.72657,5.36279L5.84351,5.25045L5.96152,5.13926L6.0806,5.02924L6.20074,4.92041L6.32193,4.81278L6.44416,4.70636L6.56743,4.60116L6.69174,4.49721L6.81706,4.39453L6.9434,4.2931L7.07074,4.19296L7.19908,4.09412L7.32841,3.99659L7.4587,3.90036L7.58997,3.80548L7.72218,3.71193L7.85534,3.61974L7.98942,3.52891L8.12442,3.43944L8.26033,3.35136L8.39711,3.26466L8.53478,3.17936L8.67332,3.09546L8.81269,3.01297L8.95291,2.93188L9.09395,2.85223L9.23579,2.77399L9.37841,2.69718L9.52182,2.62181L9.66598,2.54787L9.81088,2.47536L9.95651,2.4043L10.1029,2.33467L10.2499,2.26649L10.3976,2.19975L10.546,2.13444L10.695,2.07057L10.8422,2.00919L10.9924,1.9482L11.1432,1.88872L11.2945,1.83075L11.4464,1.77427L11.5989,1.71932L11.7519,1.6659L11.9053,1.61402L12.0593,1.5637L12.2138,1.51493L12.3687,1.46773L12.5241,1.42211L12.68,1.37806L12.8363,1.33561L12.993,1.29476L13.1501,1.2555L13.3076,1.21786L13.4655,1.18183L13.6237,1.14741L13.7823,1.11461L13.9412,1.08343L14.1005,1.05388L14.26,1.02595L14.4198,0.999635L14.5798,0.974954L14.7401,0.951894L14.9007,0.930454L15.0615,0.910635L15.2224,0.892437L15.3836,0.875849L15.5449,0.860872L15.7064,0.847497L15.8681,0.835724L16.0298,0.825552L16.1916,0.816964L16.3537,0.809958L16.5157,0.804526L16.6778,0.800668L16.84,0.798365L17.0021,0.797607L17.1617,0.798377L17.3239,0.800691L17.4861,0.804569L17.6481,0.810011L17.8101,0.817027L17.9719,0.825634L18.1338,0.835826L18.2953,0.84761L18.4569,0.860995L18.6182,0.875991L18.7794,0.89259L18.9404,0.910807L19.1011,0.930646L19.2618,0.952094L19.422,0.975174L19.5821,0.999872L19.7419,1.02619L19.9015,1.05414L20.0606,1.08371L20.2196,1.1149L20.3782,1.14772L20.5364,1.18215L20.6943,1.2182L20.8517,1.25585L21.0089,1.29512L21.1656,1.33599L21.3218,1.37845L21.4777,1.4225L21.6331,1.46813L21.788,1.51535L21.9425,1.56412L22.0964,1.61446L22.25,1.66634L22.4029,1.71978L22.5553,1.77473L22.7072,1.83121L22.8585,1.8892L23.0093,1.94868L23.1594,2.00965L23.3091,2.07209L23.3938,2.10821L23.5432,2.17326L23.6912,2.23944L23.8385,2.30705L23.9852,2.3761L24.1311,2.4466L24.2763,2.51853L24.4208,2.5919L24.5645,2.6667L24.7074,2.74294L24.8496,2.82061L24.991,2.8997L25.1315,2.98021L25.2713,3.06214L25.4101,3.14549L25.5482,3.23022L25.6853,3.31637L25.8216,3.4039L25.9569,3.4928L26.0914,3.58309L26.2249,3.67474L26.3575,3.76774L26.4891,3.86209L26.6198,3.95776L26.7495,4.05477L26.8783,4.15308L27.006,4.2527L27.1328,4.3536L27.2585,4.45577L27.3832,4.55922L27.5069,4.66389L27.6295,4.76981L27.7511,4.87695L27.8716,4.9853L27.9911,5.09482L28.1095,5.20553L28.2269,5.3174L28.3432,5.4304L28.4584,5.54454L28.5234,5.6099L28.6374,5.72635L28.7498,5.84329L28.861,5.96131L28.971,6.08038L29.0798,6.20052L29.1875,6.32171L29.2939,6.44394L29.3991,6.56721L29.5031,6.69151L29.6057,6.81684L29.7072,6.94318L29.8073,7.07052L29.9061,7.19886L30.0037,7.32819L30.0999,7.45849L30.1948,7.58975L30.2883,7.72196L30.3805,7.85512L30.4714,7.9892L30.5608,8.12421L30.6489,8.26011L30.7356,8.3969L30.8209,8.53457L30.9048,8.6731L30.9873,8.81248L31.0684,8.9527L31.148,9.09373L31.2263,9.23557L31.3031,9.3782L31.3784,9.5216L31.4524,9.66575L31.5249,9.81066L31.596,9.95629L31.6656,10.1026L31.7338,10.2497L31.8006,10.3974L31.8658,10.5457L31.9297,10.6948L31.9911,10.842L32.0521,10.9922L32.1115,11.143L32.1695,11.2943L32.226,11.4462L32.281,11.5987L32.3344,11.7516L32.3862,11.9051L32.4365,12.0591L32.4853,12.2136L32.5325,12.3685L32.5782,12.5239L32.6222,12.6798L32.6647,12.8361L32.7055,12.9928L32.7448,13.1499L32.7824,13.3074L32.8184,13.4653L32.8529,13.6235L32.8857,13.7821L32.9169,13.941L32.9464,14.1002L32.9744,14.2598L33.0006,14.4196L33.0253,14.5796L33.0484,14.74L33.0698,14.9005L33.0897,15.0613L33.1078,15.2222L33.1244,15.3834L33.1394,15.5448L33.1528,15.7062L33.1645,15.8678L33.1747,16.0296L33.1833,16.1914L33.1904,16.3535L33.1958,16.5155L33.1996,16.6775ZM17.0003,32.1058Q17.3711,32.1058,17.7415,32.0876Q18.1118,32.0694,18.4809,32.033Q18.8499,31.9967,19.2167,31.9423Q19.5835,31.8878,19.9472,31.8155Q20.3109,31.7432,20.6707,31.653Q21.0304,31.5629,21.3852,31.4553Q21.7401,31.3477,22.0892,31.2227Q22.4384,31.0978,22.781,30.9559Q23.1236,30.814,23.4588,30.6554Q23.794,30.4969,24.1211,30.3221Q24.4481,30.1473,24.7662,29.9566Q25.0842,29.766,25.3926,29.56Q25.7009,29.354,25.9987,29.1331Q26.2966,28.9122,26.5832,28.6769Q26.8699,28.4417,27.1447,28.1926Q27.4194,27.9436,27.6816,27.6814Q27.9438,27.4192,28.1929,27.1444Q28.4419,26.8696,28.6772,26.583Q28.9124,26.2963,29.1333,25.9985Q29.3542,25.7006,29.5602,25.3923Q29.7662,25.084,29.9569,24.7659Q30.1475,24.4478,30.3223,24.1208Q30.4971,23.7938,30.6557,23.4585Q30.8142,23.1233,30.9561,22.7807Q31.098,22.4381,31.223,22.089Q31.3479,21.7398,31.4555,21.385Q31.5632,21.0301,31.6533,20.6704Q31.7434,20.3107,31.8157,19.947Q31.8881,19.5833,31.9425,19.2165Q31.9969,18.8497,32.0333,18.4806Q32.0696,18.1116,32.0878,17.7412Q32.106,17.3708,32.106,17Q32.106,16.6292,32.0878,16.2588Q32.0696,15.8884,32.0333,15.5194Q31.9969,15.1504,31.9425,14.7835Q31.8881,14.4167,31.8157,14.053Q31.7434,13.6893,31.6533,13.3296Q31.5632,12.9699,31.4555,12.6151Q31.3479,12.2602,31.223,11.9111Q31.098,11.5619,30.9561,11.2193Q30.8142,10.8767,30.6557,10.5415Q30.4971,10.2063,30.3223,9.87923Q30.1475,9.55219,29.9569,9.23412Q29.7662,8.91605,29.5602,8.60772Q29.3542,8.29939,29.1333,8.00154Q28.9124,7.7037,28.6772,7.41704Q28.4419,7.13039,28.1929,6.85563Q27.9438,6.58087,27.6816,6.31865Q27.4194,6.05644,27.1447,5.80741Q26.8699,5.55838,26.5832,5.32313Q26.2966,5.08788,25.9987,4.86698Q25.7009,4.64608,25.3926,4.44006Q25.0842,4.23404,24.7662,4.0434Q24.4481,3.85276,24.1211,3.67795Q23.794,3.50315,23.4588,3.3446Q23.1236,3.18605,22.781,3.04414Q22.4384,2.90223,22.0892,2.77731Q21.7401,2.65238,21.3852,2.54473Q21.0304,2.43709,20.6707,2.34699Q20.3109,2.25688,19.9472,2.18454Q19.5835,2.1122,19.2167,2.05778Q18.8499,2.00337,18.4809,1.96703Q18.1118,1.93068,17.7415,1.91248Q17.3711,1.89429,17.0003,1.89429Q16.6294,1.89429,16.2591,1.91248Q15.8887,1.93068,15.5196,1.96703Q15.1506,2.00337,14.7838,2.05778Q14.417,2.1122,14.0533,2.18454Q13.6896,2.25688,13.3299,2.34699Q12.9702,2.43709,12.6153,2.54473Q12.2604,2.65238,11.9113,2.77731Q11.5621,2.90223,11.2195,3.04414Q10.877,3.18605,10.5417,3.3446Q10.2065,3.50315,9.87947,3.67795Q9.55243,3.85276,9.23436,4.0434Q8.9163,4.23404,8.60797,4.44006Q8.29964,4.64608,8.00179,4.86698Q7.70394,5.08788,7.41729,5.32313Q7.13064,5.55838,6.85587,5.80741Q6.58111,6.05644,6.3189,6.31865Q6.05668,6.58087,5.80765,6.85563Q5.55862,7.13039,5.32337,7.41704Q5.08812,7.7037,4.86722,8.00154Q4.64632,8.29939,4.44031,8.60772Q4.23429,8.91605,4.04364,9.23412Q3.853,9.55219,3.6782,9.87923Q3.50339,10.2063,3.34484,10.5415Q3.18629,10.8767,3.04439,11.2193Q2.90248,11.5619,2.77755,11.911Q2.65262,12.2602,2.54498,12.6151Q2.43733,12.9699,2.34723,13.3296Q2.25713,13.6893,2.18478,14.053Q2.11244,14.4167,2.05803,14.7835Q2.00362,15.1504,1.96727,15.5194Q1.93092,15.8884,1.91273,16.2588Q1.89453,16.6292,1.89453,17Q1.89453,17.3708,1.91273,17.7412Q1.93092,18.1116,1.96727,18.4806Q2.00362,18.8497,2.05803,19.2165Q2.11244,19.5833,2.18478,19.947Q2.25713,20.3107,2.34723,20.6704Q2.43733,21.0301,2.54498,21.385Q2.65262,21.7398,2.77755,22.089Q2.90248,22.4381,3.04439,22.7807Q3.18629,23.1233,3.34484,23.4585Q3.50339,23.7938,3.6782,24.1208Q3.853,24.4478,4.04364,24.7659Q4.23429,25.084,4.44031,25.3923Q4.64632,25.7006,4.86722,25.9985Q5.08813,26.2963,5.32337,26.583Q5.55862,26.8696,5.80765,27.1444Q6.05668,27.4192,6.3189,27.6814Q6.58111,27.9436,6.85587,28.1926Q7.13064,28.4417,7.41729,28.6769Q7.70394,28.9122,8.00179,29.1331Q8.29964,29.354,8.60797,29.56Q8.9163,29.766,9.23436,29.9566Q9.55243,30.1473,9.87947,30.3221Q10.2065,30.4969,10.5417,30.6554Q10.877,30.814,11.2195,30.9559Q11.5621,31.0978,11.9113,31.2227Q12.2604,31.3477,12.6153,31.4553Q12.9702,31.5629,13.3299,31.653Q13.6896,31.7432,14.0533,31.8155Q14.417,31.8878,14.7838,31.9423Q15.1506,31.9967,15.5196,32.033Q15.8887,32.0694,16.2591,32.0876Q16.6294,32.1058,17.0003,32.1058ZM14.2122,11.6609C14.3144,12.1974,14.3399,12.7595,14.3399,13.296L14.3399,13.296L14.3399,14.2413C14.3143,15.1355,14.3654,16.0296,14.4421,16.9238C14.4676,16.9749,14.4932,17.0516,14.5443,17.1027C14.5698,17.1538,14.672,17.1027,14.7742,16.9749C14.8764,16.8472,14.9786,16.6939,15.0808,16.5662C15.2341,16.3618,15.4129,16.1318,15.5662,15.9275C16.3582,14.9566,17.2013,14.0624,18.2232,13.3471C19.6794,12.3252,21.289,11.6609,23.0262,11.3799C23.7416,11.2522,24.4569,11.2011,25.1722,11.2522C26.2197,11.3288,27.2672,11.5332,28.2636,11.8909C28.7234,12.0442,29.1066,12.2996,29.4132,12.6829C29.7198,13.0661,29.6176,13.3982,29.1322,13.5259C28.8256,13.6026,28.519,13.6537,28.1869,13.6026C27.9059,13.5515,27.5993,13.5259,27.3183,13.4493C26.7562,13.3471,26.1942,13.3471,25.6321,13.4493C25.3255,13.4748,25.0445,13.5259,24.7379,13.577C23.6649,13.8325,22.7196,14.3179,21.8255,14.9822C21.0335,15.5698,20.3181,16.234,19.6539,16.9749C18.9896,17.7414,18.3765,18.5333,17.84,19.402C17.2524,20.3728,16.7925,21.4203,16.4093,22.4933C16.0772,23.3875,15.8728,24.3327,15.6684,25.278C15.5151,26.0445,15.3363,26.8109,15.1574,27.5773C15.0808,27.9095,15.0297,28.2671,15.0552,28.5993L15.0552,28.7526C15.0808,29.1869,14.8764,29.4679,14.4932,29.6212C14.3143,29.6978,14.1355,29.7745,13.9311,29.7745C13.5735,29.8,13.1902,29.8256,12.8326,29.7489C12.0661,29.6212,11.3508,29.3912,10.661,29.008C10.2778,28.8036,9.99674,28.5226,9.8179,28.1138C9.71571,27.8584,9.58797,27.5773,9.48578,27.2963C9.10256,26.2744,8.89817,25.2269,8.66824,24.1539C8.36166,22.621,8.10618,21.0626,7.87625,19.4786C7.72296,18.3034,7.54413,17.1027,7.36529,15.9019C7.212,14.9055,7.08426,13.9092,6.93098,12.9128C6.90543,12.6573,6.87988,12.4018,6.87988,12.1719C6.87988,11.4565,6.87988,10.7412,6.90543,10.0259C6.93098,9.48935,7.03317,8.95285,7.08427,8.41634C7.10982,8.2886,7.16091,8.16086,7.18646,8.03312C7.44194,6.90901,8.18284,6.21921,9.25585,5.83599C9.97119,5.58051,10.6865,5.58051,11.4274,5.86154C11.8617,6.04037,12.245,6.29585,12.5515,6.67907C12.9348,7.16449,13.2158,7.701,13.4457,8.2886C13.7012,8.97839,13.8545,9.69374,14.0078,10.4346C14.0844,10.8434,14.1355,11.2522,14.2122,11.6609Z" fill-rule="evenodd" fill="#00968F" fill-opacity="1"/></g></g></svg>